<?xml version="1.0" encoding="utf-8"?>
<!-- Generator: Adobe Illustrator 25.4.1, SVG Export Plug-In . SVG Version: 6.00 Build 0)  -->
<svg version="1.1" id="Layer_1" xmlns="http://www.w3.org/2000/svg" xmlns:xlink="http://www.w3.org/1999/xlink" x="0px" y="0px"
	 viewBox="0 0 42 42" style="enable-background:new 0 0 42 42;" xml:space="preserve">
<style type="text/css">
	.st0{fill:#FFFFFF;}
</style>
<path class="st0" d="M34.77,33.48L24.15,7.79c-0.6-1.33-1.49-1.98-2.66-1.98h-0.94c-1.17,0-2.07,0.65-2.66,1.98l-4.63,11.19h-3.5
	c-1.04,0.01-1.9,0.85-1.9,1.9v0.02c0.01,1.04,0.86,1.9,1.9,1.9h1.88L7.22,33.48c-0.08,0.23-0.13,0.48-0.13,0.73
	c0,0.6,0.19,1.07,0.52,1.43c0.33,0.36,0.81,0.54,1.41,0.54c0.4-0.01,0.78-0.13,1.09-0.36c0.34-0.23,0.58-0.58,0.76-0.96l4.86-12.05
	h3.37c1.04-0.01,1.9-0.85,1.9-1.9v-0.05c-0.01-1.04-0.86-1.9-1.9-1.9h-1.8l3.71-9.24l10.11,25.14c0.19,0.39,0.42,0.73,0.76,0.96
	c0.32,0.23,0.7,0.36,1.09,0.36c0.6,0,1.07-0.18,1.41-0.54c0.34-0.36,0.52-0.83,0.52-1.43C34.91,33.96,34.87,33.71,34.77,33.48z"/>
</svg>
