<?xml version="1.0" encoding="utf-8"?>
<!-- Generator: Adobe Illustrator 25.4.1, SVG Export Plug-In . SVG Version: 6.00 Build 0)  -->
<svg version="1.1" id="Layer_1" xmlns="http://www.w3.org/2000/svg" xmlns:xlink="http://www.w3.org/1999/xlink" x="0px" y="0px"
	 viewBox="0 0 42 42" style="enable-background:new 0 0 42 42;" xml:space="preserve">
<style type="text/css">
	.st0{fill-rule:evenodd;clip-rule:evenodd;fill:#FFFFFF;}
</style>
<g>
	<path class="st0" d="M40.62,19.94c0.51,0,0.93,0.42,0.93,0.93c0,0.51-0.42,0.93-0.93,0.93c-0.51,0-0.93-0.42-0.93-0.93
		C39.69,20.36,40.11,19.94,40.62,19.94L40.62,19.94z M30.81,36.77c0.51,0,0.93,0.42,0.93,0.93c0,0.51-0.42,0.93-0.93,0.93
		c-0.51,0-0.93-0.42-0.93-0.93C29.88,37.2,30.3,36.77,30.81,36.77L30.81,36.77z M11.19,36.86c0.51,0,0.93,0.42,0.93,0.93
		c0,0.51-0.42,0.93-0.93,0.93c-0.51,0-0.93-0.42-0.93-0.93C10.26,37.28,10.68,36.86,11.19,36.86L11.19,36.86z M1.38,20.03
		c0.51,0,0.93,0.42,0.93,0.93c0,0.51-0.42,0.93-0.93,0.93c-0.51,0-0.93-0.42-0.93-0.93C0.45,20.45,0.87,20.03,1.38,20.03L1.38,20.03
		z M30.81,3.2c0.51,0,0.93,0.42,0.93,0.93c0,0.51-0.42,0.93-0.93,0.93c-0.51,0-0.93-0.42-0.93-0.93C29.88,3.62,30.3,3.2,30.81,3.2
		L30.81,3.2z M11.1,3.28c0.51,0,0.93,0.42,0.93,0.93c0,0.51-0.42,0.93-0.93,0.93c-0.51,0-0.93-0.42-0.93-0.93
		C10.17,3.71,10.6,3.28,11.1,3.28L11.1,3.28z M13.73,31.95c0.76,0,1.44,0.59,1.44,1.44c0,0.76-0.59,1.44-1.44,1.44
		c-0.76,0-1.44-0.59-1.44-1.44C12.29,32.63,12.88,31.95,13.73,31.95L13.73,31.95z M28.19,31.87c0.76,0,1.44,0.59,1.44,1.44
		c0,0.76-0.59,1.44-1.44,1.44c-0.76,0-1.44-0.59-1.44-1.44C26.75,32.54,27.34,31.87,28.19,31.87L28.19,31.87z M35.38,19.52
		c0.76,0,1.44,0.59,1.44,1.44c0,0.76-0.59,1.44-1.44,1.44c-0.76,0-1.44-0.59-1.44-1.44C33.94,20.2,34.53,19.52,35.38,19.52
		L35.38,19.52z M28.1,7.17c0.76,0,1.44,0.59,1.44,1.44c0,0.76-0.59,1.44-1.44,1.44c-0.76,0-1.44-0.59-1.44-1.44
		C26.67,7.85,27.26,7.17,28.1,7.17L28.1,7.17z M13.64,7.17c0.76,0,1.44,0.59,1.44,1.44c0,0.76-0.59,1.44-1.44,1.44
		c-0.76,0-1.44-0.59-1.44-1.44C12.2,7.85,12.8,7.17,13.64,7.17L13.64,7.17z M6.45,19.6c0.76,0,1.44,0.59,1.44,1.44
		c0,0.76-0.59,1.44-1.44,1.44c-0.76,0-1.44-0.59-1.44-1.44C5.02,20.28,5.61,19.6,6.45,19.6L6.45,19.6z M20.83,37.36
		c0.68,0,1.18,0.51,1.18,1.18c0,0.68-0.51,1.18-1.18,1.18c-0.68,0-1.18-0.51-1.18-1.18C19.65,37.87,20.15,37.36,20.83,37.36
		L20.83,37.36z M36.31,28.57c0.68,0,1.18,0.51,1.18,1.18c0,0.68-0.51,1.18-1.18,1.18c-0.68,0-1.18-0.51-1.18-1.18
		C35.12,29.08,35.63,28.57,36.31,28.57L36.31,28.57z M5.44,28.65c0.68,0,1.18,0.51,1.18,1.18c0,0.68-0.51,1.18-1.18,1.18
		c-0.68,0-1.18-0.51-1.18-1.18C4.25,29.16,4.76,28.65,5.44,28.65L5.44,28.65z M20.83,2.27c0.68,0,1.18,0.51,1.18,1.18
		s-0.51,1.18-1.18,1.18c-0.68,0-1.18-0.51-1.18-1.18S20.15,2.27,20.83,2.27L20.83,2.27z M5.44,10.98c0.68,0,1.18,0.51,1.18,1.18
		c0,0.68-0.51,1.18-1.18,1.18c-0.68,0-1.18-0.51-1.18-1.18C4.25,11.48,4.76,10.98,5.44,10.98L5.44,10.98z M36.31,10.98
		c0.68,0,1.18,0.51,1.18,1.18c0,0.68-0.51,1.18-1.18,1.18c-0.68,0-1.18-0.51-1.18-1.18C35.12,11.48,35.63,10.98,36.31,10.98
		L36.31,10.98z M11.19,24.85c0.93,0,1.69,0.76,1.69,1.69c0,0.93-0.76,1.69-1.69,1.69c-0.93,0-1.69-0.76-1.69-1.69
		C9.5,25.61,10.26,24.85,11.19,24.85L11.19,24.85z M20.75,30.34c0.93,0,1.69,0.76,1.69,1.69c0,0.93-0.76,1.69-1.69,1.69
		c-0.93,0-1.69-0.76-1.69-1.69C19.05,31.11,19.82,30.34,20.75,30.34L20.75,30.34z M30.56,24.85c0.93,0,1.69,0.76,1.69,1.69
		c0,0.93-0.76,1.69-1.69,1.69c-0.93,0-1.69-0.76-1.69-1.69C28.86,25.61,29.63,24.85,30.56,24.85L30.56,24.85z M20.83,8.36
		c0.93,0,1.69,0.76,1.69,1.69c0,0.93-0.76,1.69-1.69,1.69c-0.93,0-1.69-0.76-1.69-1.69C19.14,9.12,19.9,8.36,20.83,8.36L20.83,8.36z
		 M30.56,13.85c0.93,0,1.69,0.76,1.69,1.69c0,0.93-0.76,1.69-1.69,1.69c-0.93,0-1.69-0.76-1.69-1.69
		C28.86,14.61,29.63,13.85,30.56,13.85L30.56,13.85z M11.27,13.94c0.93,0,1.69,0.76,1.69,1.69c0,0.93-0.76,1.69-1.69,1.69
		c-0.93,0-1.69-0.76-1.69-1.69C9.58,14.7,10.34,13.94,11.27,13.94L11.27,13.94z M17.7,12.75c1.52,0,2.71,1.27,2.71,2.71
		c0,1.52-1.27,2.71-2.71,2.71c-1.52,0-2.71-1.27-2.71-2.71C15,13.94,16.26,12.75,17.7,12.75L17.7,12.75z M14.4,18.42
		c1.52,0,2.71,1.27,2.71,2.71c0,1.52-1.27,2.71-2.71,2.71c-1.52,0-2.71-1.27-2.71-2.71C11.7,19.6,12.96,18.42,14.4,18.42L14.4,18.42
		z M17.62,24c1.52,0,2.71,1.27,2.71,2.71c0,1.52-1.27,2.71-2.71,2.71c-1.52,0-2.71-1.27-2.71-2.71C14.91,25.19,16.18,24,17.62,24
		L17.62,24z M24.13,24c1.52,0,2.71,1.27,2.71,2.71c0,1.52-1.27,2.71-2.71,2.71c-1.52,0-2.71-1.27-2.71-2.71
		C21.42,25.19,22.69,24,24.13,24L24.13,24z M27.43,18.42c1.52,0,2.71,1.27,2.71,2.71c0,1.52-1.27,2.71-2.71,2.71
		c-1.52,0-2.71-1.27-2.71-2.71C24.72,19.6,25.99,18.42,27.43,18.42L27.43,18.42z M24.13,12.84c1.52,0,2.71,1.27,2.71,2.71
		c0,1.52-1.27,2.71-2.71,2.71c-1.52,0-2.71-1.27-2.71-2.71C21.42,14.02,22.69,12.84,24.13,12.84L24.13,12.84z M24.13,12.84"/>
</g>
</svg>
