<?xml version="1.0" encoding="utf-8"?>
<!-- Generator: Adobe Illustrator 25.4.1, SVG Export Plug-In . SVG Version: 6.00 Build 0)  -->
<svg version="1.1" id="Layer_1" xmlns="http://www.w3.org/2000/svg" xmlns:xlink="http://www.w3.org/1999/xlink" x="0px" y="0px"
	 viewBox="0 0 42 42" style="enable-background:new 0 0 42 42;" xml:space="preserve">
<style type="text/css">
	.st0{fill:#FFFFFF;}
</style>
<polygon class="st0" points="11.77,35.17 15.88,28.08 19.98,21 24.05,13.9 24.73,12.77 25.02,13.9 26.27,18.58 24.88,21 
	20.77,28.08 16.7,35.17 21.6,35.17 25.7,28.08 27.83,24.4 28.83,28.08 30.73,35.17 35.12,35.17 33.22,28.08 31.33,21 30.83,19.17 
	33.88,13.9 29.42,13.9 29.27,13.38 27.73,7.57 27.52,6.82 23.25,6.82 23.15,6.97 19.15,13.9 15.05,21 10.98,28.08 6.88,35.17 "/>
</svg>
