<?xml version="1.0" encoding="utf-8"?>
<!-- Generator: Adobe Illustrator 25.4.1, SVG Export Plug-In . SVG Version: 6.00 Build 0)  -->
<svg version="1.1" id="Layer_1" xmlns="http://www.w3.org/2000/svg" xmlns:xlink="http://www.w3.org/1999/xlink" x="0px" y="0px"
	 viewBox="0 0 42 42" style="enable-background:new 0 0 42 42;" xml:space="preserve">
<style type="text/css">
	.st0{fill:#FFFFFF;}
</style>
<g>
	<path class="st0" d="M19.96,3c0.28-0.33,0.71-0.61,1.16-0.52c0.48,0.1,0.83,0.5,1.09,0.88C22.7,4.09,23,4.92,23.27,5.74
		c0.36,1.13,0.62,2.28,0.83,3.44c0.31,1.71,0.52,3.44,0.67,5.17c1.25-0.59,2.52-1.14,3.81-1.64c0.03,0.28,0.14,0.55,0.32,0.77
		c-1.34,0.52-2.66,1.09-3.96,1.71c-0.09,0.02-0.11,0.1-0.09,0.18c0.08,1.06,0.13,2.13,0.16,3.19c1,0.62,2,1.25,2.97,1.92
		c1.56-1.07,3.08-2.21,4.51-3.45c0.9-0.78,1.78-1.59,2.56-2.49c0.46-0.54,0.91-1.1,1.2-1.74c0.08-0.22,0.2-0.46,0.13-0.7
		c-0.21-0.19-0.52-0.2-0.79-0.23c-0.89-0.04-1.78,0.13-2.65,0.32c-0.59,0.13-1.16,0.3-1.73,0.48c0-0.28-0.07-0.57-0.24-0.8
		c1.26-0.36,2.54-0.73,3.86-0.82c0.56-0.03,1.14-0.03,1.67,0.17c0.35,0.12,0.65,0.42,0.72,0.79c0.06,0.37-0.04,0.75-0.19,1.09
		c-0.31,0.72-0.8,1.35-1.31,1.94c-0.92,1.06-1.95,2.01-3.01,2.91c-0.86,0.73-1.76,1.43-2.67,2.1c-0.43,0.33-0.88,0.62-1.31,0.95
		c1.37,0.95,2.71,1.96,3.98,3.03c1.22,1.04,2.41,2.13,3.41,3.39c0.43,0.56,0.85,1.15,1.04,1.84c0.12,0.4,0.12,0.89-0.2,1.2
		c-0.4,0.41-1.01,0.47-1.56,0.49c-1.1,0.01-2.18-0.23-3.25-0.5c-0.89-0.24-1.77-0.52-2.63-0.83c-1.62-0.58-3.2-1.26-4.76-1.98
		c-0.15,1.73-0.36,3.46-0.67,5.17c-0.2,1.09-0.44,2.17-0.76,3.24c-0.26,0.83-0.56,1.66-1.01,2.41c-0.27,0.42-0.6,0.86-1.09,1.04
		c-0.39,0.14-0.82-0.04-1.11-0.31c-0.47-0.45-0.77-1.03-1.03-1.62c-0.43-1-0.73-2.06-0.98-3.13c0.28,0.05,0.57,0.01,0.83-0.11
		c0.24,0.98,0.51,1.96,0.91,2.88c0.19,0.42,0.39,0.84,0.69,1.2c0.11,0.13,0.23,0.26,0.4,0.3c0.15-0.04,0.26-0.16,0.37-0.27
		c0.33-0.37,0.54-0.82,0.74-1.27c0.55-1.32,0.89-2.72,1.16-4.12c0.37-1.91,0.6-3.85,0.76-5.8c-1.01-0.47-1.98-1-2.97-1.52
		c-1.02,0.55-2.05,1.07-3.08,1.58c0.13,1.51,0.29,3.02,0.54,4.51c0.06,0.01,0.13,0.03,0.19,0.04c-0.34-0.07-0.71-0.01-1,0.18
		c-0.24-1.44-0.4-2.9-0.53-4.36c-1.57,0.73-3.17,1.41-4.81,1.99c-1.31,0.46-2.64,0.87-4,1.11c-0.7,0.12-1.41,0.21-2.12,0.13
		c-0.44-0.05-0.91-0.17-1.2-0.53c-0.26-0.32-0.24-0.78-0.13-1.16c0.23-0.77,0.72-1.42,1.22-2.04c0.91-1.09,1.95-2.06,3.02-2.99
		c1.33-1.14,2.73-2.19,4.17-3.19c-0.01-0.06-0.07-0.09-0.12-0.13c-1.18-0.82-2.33-1.69-3.45-2.6c0.25-0.13,0.46-0.33,0.6-0.58
		c1.2,0.98,2.45,1.91,3.73,2.79c0.89-0.6,1.79-1.19,2.7-1.75c0.05-0.05,0.16-0.07,0.14-0.16c0.03-1.13,0.1-2.25,0.16-3.38
		c-0.63-0.33-1.29-0.6-1.94-0.89c-1.14-0.49-2.29-0.95-3.46-1.35c-1.13-0.39-2.28-0.73-3.45-0.94c-0.69-0.11-1.4-0.21-2.1-0.1
		c-0.17,0.04-0.39,0.07-0.48,0.24c-0.03,0.3,0.12,0.58,0.24,0.84c0.46,0.86,1.12,1.59,1.79,2.29c0.24,0.26,0.49,0.49,0.75,0.73
		c-0.23,0.17-0.41,0.41-0.5,0.68c-0.9-0.86-1.78-1.75-2.47-2.79c-0.29-0.47-0.58-0.97-0.64-1.53c-0.05-0.35,0.07-0.72,0.35-0.94
		c0.41-0.33,0.96-0.38,1.46-0.4c0.97-0.01,1.94,0.18,2.88,0.41c0.96,0.23,1.89,0.53,2.82,0.86c1.64,0.58,3.24,1.26,4.81,1.99
		c0.15-1.72,0.36-3.44,0.67-5.14c0.24-1.28,0.52-2.55,0.95-3.78C19.03,4.54,19.37,3.69,19.96,3 M20.46,3.69
		c-0.44,0.6-0.71,1.29-0.95,1.99c-0.36,1.07-0.62,2.16-0.83,3.27c-0.37,1.9-0.6,3.82-0.75,5.74c1.04,0.5,2.07,1.03,3.09,1.58
		c0.97-0.54,1.97-1.03,2.96-1.53c-0.15-1.94-0.39-3.87-0.75-5.77l-0.01,0c-0.11-0.68-0.28-1.35-0.45-2.02
		c-0.25-0.92-0.54-1.83-0.97-2.68C21.58,3.9,21.37,3.51,21,3.3C20.76,3.29,20.6,3.53,20.46,3.69 M17.85,15.57
		c-0.06,0.85-0.1,1.7-0.13,2.56c0.8-0.47,1.6-0.94,2.41-1.39C19.38,16.33,18.62,15.95,17.85,15.57 M21.88,16.74
		c0.77,0.43,1.53,0.87,2.28,1.31c-0.03-0.81-0.07-1.61-0.12-2.42C23.31,16,22.59,16.35,21.88,16.74 M17.7,19.12
		c-0.03,1.25-0.04,2.5,0,3.75c1.09,0.65,2.18,1.3,3.3,1.9c1.08-0.58,2.14-1.2,3.19-1.83c0.03-1.3,0.03-2.6,0-3.9
		c-1.05-0.63-2.11-1.24-3.18-1.83C19.89,17.82,18.78,18.46,17.7,19.12 M25.03,19.56c0.02,0.95,0.02,1.91,0,2.86
		c0.75-0.46,1.48-0.94,2.21-1.43C26.52,20.5,25.77,20.03,25.03,19.56 M14.77,20.99c0.69,0.46,1.38,0.92,2.09,1.35
		c-0.02-0.9-0.01-1.8,0-2.7C16.15,20.08,15.45,20.53,14.77,20.99 M9.36,25.08c-0.89,0.77-1.74,1.59-2.51,2.48
		c-0.46,0.56-0.92,1.14-1.18,1.83c-0.06,0.19-0.16,0.49,0.1,0.57c0.56,0.22,1.19,0.15,1.77,0.09c1.4-0.18,2.77-0.58,4.1-1.04
		c1.85-0.63,3.65-1.39,5.4-2.24c-0.09-1.12-0.14-2.25-0.17-3.38c0.02-0.09-0.09-0.12-0.14-0.16c-0.92-0.56-1.82-1.15-2.71-1.75
		C12.41,22.61,10.84,23.79,9.36,25.08 M25.01,23.41c-0.03,1.11-0.1,2.23-0.16,3.34c1.75,0.81,3.52,1.59,5.35,2.22
		c1.58,0.53,3.19,1.04,4.86,1.14c0.44,0,0.95,0.04,1.32-0.24c0.08-0.26-0.06-0.53-0.16-0.77c-0.47-0.94-1.19-1.72-1.9-2.47
		c-0.58-0.59-1.19-1.15-1.82-1.69c-1.43-1.24-2.95-2.37-4.51-3.45C27.01,22.16,26.02,22.8,25.01,23.41 M17.72,23.85
		c0.03,0.85,0.07,1.7,0.13,2.55c0.77-0.37,1.53-0.76,2.28-1.16C19.33,24.79,18.52,24.33,17.72,23.85 M21.88,25.24
		c0.71,0.38,1.43,0.75,2.16,1.11c0.05-0.81,0.1-1.62,0.12-2.43C23.41,24.38,22.64,24.81,21.88,25.24"/>
	<path class="st0" d="M28.87,11.8c0.22-0.25,0.53-0.44,0.87-0.47c0.47-0.06,0.96,0.16,1.23,0.55c0.16,0.23,0.24,0.52,0.24,0.8
		c-0.02,0.37-0.2,0.73-0.49,0.96c-0.52,0.44-1.36,0.36-1.8-0.16c-0.18-0.22-0.29-0.48-0.32-0.77C28.56,12.39,28.67,12.06,28.87,11.8
		 M8.39,16.02c0.4-0.28,0.95-0.3,1.37-0.07c0.61,0.32,0.86,1.14,0.53,1.75c-0.14,0.25-0.35,0.45-0.6,0.58
		c-0.23,0.1-0.49,0.14-0.75,0.11c-0.36-0.06-0.7-0.26-0.9-0.56c-0.23-0.33-0.28-0.76-0.16-1.13C7.98,16.42,8.16,16.19,8.39,16.02
		 M20.47,18.82c0.52-0.11,1.07-0.03,1.53,0.23c0.63,0.34,1.06,1,1.13,1.71c0.11,0.91-0.43,1.85-1.26,2.23
		c-0.74,0.35-1.67,0.25-2.31-0.26c-0.79-0.59-1.07-1.74-0.66-2.64C19.19,19.44,19.79,18.96,20.47,18.82 M17.65,32.04
		c0.29-0.19,0.66-0.26,1-0.18c0.6,0.12,1.05,0.7,1.03,1.31c-0.02,0.48-0.3,0.94-0.74,1.14c-0.26,0.12-0.55,0.16-0.83,0.11
		c-0.36-0.08-0.7-0.3-0.88-0.63c-0.2-0.34-0.23-0.78-0.08-1.15C17.26,32.4,17.44,32.19,17.65,32.04"/>
</g>
</svg>
