<?xml version="1.0" encoding="utf-8"?>
<!-- Generator: Adobe Illustrator 25.4.1, SVG Export Plug-In . SVG Version: 6.00 Build 0)  -->
<svg version="1.1" id="Layer_1" xmlns="http://www.w3.org/2000/svg" xmlns:xlink="http://www.w3.org/1999/xlink" x="0px" y="0px"
	 viewBox="0 0 42 42" style="enable-background:new 0 0 42 42;" xml:space="preserve">
<style type="text/css">
	.st0{fill:#FFFFFF;}
</style>
<path class="st0" d="M30.2,24.7c0.9-1.6,2.4-1.6,3.3,0l5.6,9.9c0.9,1.6,0.2,2.8-1.6,2.8H26.1c-1.8,0-2.5-1.3-1.6-2.8L30.2,24.7z
	 M19.3,5.7c0.9-1.6,2.3-1.6,3.3,0l1.3,2.3l3,5.2c0.7,1.5,0.7,3.2,0,4.7l-9.9,17.2c-0.9,1.4-2.4,2.3-4.1,2.4H4.5
	c-1.8,0-2.6-1.3-1.6-2.8L19.3,5.7z"/>
</svg>
