<?xml version="1.0" encoding="utf-8"?>
<!-- Generator: Adobe Illustrator 25.4.1, SVG Export Plug-In . SVG Version: 6.00 Build 0)  -->
<svg version="1.1" id="Layer_1" xmlns="http://www.w3.org/2000/svg" xmlns:xlink="http://www.w3.org/1999/xlink" x="0px" y="0px"
	 viewBox="0 0 42 42" style="enable-background:new 0 0 42 42;" xml:space="preserve">
<style type="text/css">
	.st0{fill:#FFFFFF;}
</style>
<g>
	<path class="st0" d="M14.01,18.13L21,11.14l6.99,6.99l4.07-4.07L21,3L9.94,14.06L14.01,18.13 M3,21l4.07-4.07L11.14,21l-4.07,4.07
		L3,21z M14.01,23.87L21,30.86l6.99-6.99l4.07,4.07l0,0L21,39L9.94,27.94l-0.01-0.01L14.01,23.87 M30.86,21l4.07-4.07L39,21
		l-4.07,4.07L30.86,21z"/>
	<path class="st0" d="M25.13,21L25.13,21L21,16.87l-3.05,3.05h0l-0.35,0.35l-0.72,0.72L16.87,21l0.01,0.01L21,25.13L25.13,21
		L25.13,21L25.13,21"/>
</g>
</svg>
