<?xml version="1.0" encoding="utf-8"?>
<!-- Generator: Adobe Illustrator 25.4.1, SVG Export Plug-In . SVG Version: 6.00 Build 0)  -->
<svg version="1.1" id="Layer_1" xmlns="http://www.w3.org/2000/svg" xmlns:xlink="http://www.w3.org/1999/xlink" x="0px" y="0px"
	 viewBox="0 0 42 42" style="enable-background:new 0 0 42 42;" xml:space="preserve">
<style type="text/css">
	.st0{fill:#FFFFFF;}
</style>
<g>
	<path class="st0" d="M19.3,21.23l-1.18,4.72c1.45,0.36,5.93,1.8,6.59-0.86C25.41,22.31,20.75,21.59,19.3,21.23z"/>
	<path class="st0" d="M20.9,14.79l-1.07,4.28c1.21,0.3,4.94,1.53,5.54-0.89C26.01,15.66,22.11,15.09,20.9,14.79z"/>
	<path class="st0" d="M25.72,2.06C15.26-0.55,4.67,5.82,2.06,16.28c-2.61,10.46,3.76,21.05,14.21,23.66
		c10.46,2.61,21.06-3.76,23.66-14.22C42.55,15.26,36.18,4.67,25.72,2.06z M29.61,18.22c-0.28,1.9-1.34,2.82-2.73,3.15
		c1.92,1,2.9,2.54,1.97,5.2c-1.16,3.3-3.9,3.58-7.56,2.89L20.4,33l-2.14-0.53l0.87-3.5c-0.56-0.14-1.12-0.28-1.71-0.44l-0.88,3.52
		l-2.14-0.53l0.89-3.56c-0.5-0.13-1.01-0.26-1.53-0.39l-2.79-0.7l1.06-2.45c0,0,1.58,0.42,1.56,0.39c0.61,0.15,0.88-0.25,0.98-0.51
		l1.4-5.62c0.08,0.02,0.15,0.04,0.23,0.06c-0.09-0.03-0.16-0.06-0.22-0.07l1-4.01c0.03-0.46-0.13-1.03-1-1.25
		c0.03-0.02-1.56-0.39-1.56-0.39L15,10.73l2.95,0.74l0,0.01c0.44,0.11,0.9,0.22,1.37,0.32l0.88-3.52l2.14,0.53l-0.86,3.45
		c0.57,0.13,1.15,0.26,1.72,0.4l0.85-3.43l2.14,0.53l-0.88,3.52C28.02,14.22,30,15.62,29.61,18.22z"/>
</g>
</svg>
