<?xml version="1.0" encoding="utf-8"?>
<!-- Generator: Adobe Illustrator 25.4.1, SVG Export Plug-In . SVG Version: 6.00 Build 0)  -->
<svg version="1.1" id="Layer_1" xmlns="http://www.w3.org/2000/svg" xmlns:xlink="http://www.w3.org/1999/xlink" x="0px" y="0px"
	 viewBox="0 0 42 42" style="enable-background:new 0 0 42 42;" xml:space="preserve">
<style type="text/css">
	.st0{fill-rule:evenodd;clip-rule:evenodd;fill:#FFFFFF;}
</style>
<path class="st0" d="M7.82,31.58c-0.93-0.57-1.51-1.59-1.51-2.68v-6.11c0-0.72,0.59-1.31,1.32-1.31c0.23,0,0.46,0.06,0.66,0.18
	l13.78,8.03c0.81,0.47,1.3,1.33,1.3,2.27v6.33c0,0.87-0.7,1.58-1.57,1.58c-0.29,0-0.58-0.08-0.83-0.23L7.82,31.58z M28.35,19.99
	c0.81,0.47,1.3,1.33,1.3,2.27v12.84c0,0.38-0.2,0.73-0.53,0.91l-3.02,1.7c-0.04,0.02-0.08,0.04-0.12,0.05v-7.13
	c0-0.92-0.48-1.78-1.28-2.25l-12.1-7.24v-8.05c0-0.73,0.59-1.31,1.32-1.31c0.23,0,0.46,0.06,0.66,0.18L28.35,19.99z M34.38,10.51
	c0.81,0.47,1.31,1.33,1.31,2.27v18.75c0,0.38-0.22,0.74-0.55,0.92l-2.86,1.54V20.94c0-0.92-0.48-1.77-1.27-2.25l-12.37-7.42V3.64
	c0-0.23,0.06-0.46,0.17-0.66c0.37-0.62,1.17-0.84,1.79-0.48L34.38,10.51z"/>
</svg>
