<?xml version="1.0" encoding="utf-8"?>
<!-- Generator: Adobe Illustrator 25.4.1, SVG Export Plug-In . SVG Version: 6.00 Build 0)  -->
<svg version="1.1" id="Layer_1" xmlns="http://www.w3.org/2000/svg" xmlns:xlink="http://www.w3.org/1999/xlink" x="0px" y="0px"
	 viewBox="0 0 42 42" style="enable-background:new 0 0 42 42;" xml:space="preserve">
<style type="text/css">
	.st0{fill:#FFFFFF;}
</style>
<g transform="matrix(.107872 0 0 .107872 179.072 65)">
	<path class="st0" d="M-1466.88-580.78c-71.77,0.29-129.88,58.4-130.17,130.17c0,14.37,2.32,28.65,6.86,42.28
		c3.39,9.28,13.45,14.28,22.9,11.41c9.13-3.5,13.98-13.48,11.07-22.82c-3.86-10.63-5.57-21.9-5.07-33.18
		c1.57-51.84,44.85-92.6,96.69-91.03c51.84,1.57,92.6,44.85,91.03,96.69c-1.47,48.53-39.69,87.94-88.16,90.9
		c0,0-18.27,1.11-27.36,2.22c-3.35,0.48-6.67,1.14-9.95,1.98c-0.47,0.48-1.22,0.48-1.7,0.01l-0.01-0.01c-0.33-0.43-0.33-1.03,0-1.46
		l2.83-15.43l17.16-77.18c2.06-9.64-4.08-19.12-13.71-21.18s-19.12,4.08-21.18,13.71c0,0-40.81,188.92-40.81,190.63
		c-2.33,9.18,3.21,18.52,12.4,20.85c0.1,0.03,0.21,0.05,0.3,0.07h0.95c9.17,2.38,18.53-3.14,20.89-12.31
		c0.04-0.15,0.08-0.3,0.11-0.47c-0.03-0.29-0.03-0.58,0-0.85c0.51-2.22,5.66-27.36,5.66-27.36c3.9-18.97,19.19-33.51,38.33-36.45
		c3.94-0.6,20.5-1.72,20.5-1.72c71.5-7.13,123.68-70.87,116.54-142.36C-1347.32-528.87-1401.34-579.08-1466.88-580.78
		L-1466.88-580.78z"/>
	<path class="st0" d="M-1458.99-280.64c-11.74-2.44-23.21,5.09-25.66,16.82c-0.03,0.11-0.04,0.22-0.07,0.33
		c-2.54,11.66,4.85,23.17,16.52,25.71c0.01,0,0.03,0,0.04,0.01h0.6c11.42,2.76,22.91-4.27,25.66-15.68
		c0.03-0.08,0.04-0.18,0.07-0.26v-1.19C-1439.81-266.67-1447.33-277.97-1458.99-280.64L-1458.99-280.64z"/>
</g>
</svg>
