<?xml version="1.0" encoding="utf-8"?>
<!-- Generator: Adobe Illustrator 25.4.1, SVG Export Plug-In . SVG Version: 6.00 Build 0)  -->
<svg version="1.1" id="Layer_1" xmlns="http://www.w3.org/2000/svg" xmlns:xlink="http://www.w3.org/1999/xlink" x="0px" y="0px"
	 viewBox="0 0 26 26" style="enable-background:new 0 0 26 26;" xml:space="preserve">
<style type="text/css">
	.st0{fill:#00BF10;}
	.st1{fill:#FFFFFF;}
</style>
<g>
	<g>
		<circle class="st0" cx="13" cy="13" r="12.1"/>
	</g>
	<g>
		<g>
			<path class="st1" d="M16.04,10.2c0,0.81,0.68,1.47,1.51,1.47c0.84,0,1.51-0.66,1.51-1.47s-0.68-1.47-1.51-1.47
				C16.71,8.72,16.04,9.38,16.04,10.2z"/>
		</g>
		<g>
			<g>
				<g>
					<path class="st1" d="M6.95,10.2c0,0.81,0.68,1.47,1.51,1.47c0.84,0,1.51-0.66,1.51-1.47S9.29,8.73,8.46,8.73
						C7.62,8.72,6.95,9.38,6.95,10.2z"/>
				</g>
			</g>
		</g>
	</g>
	<g>
		<path class="st1" d="M13,19.05c4.06,0,5.62-3.1,5.68-3.23c0.15-0.3,0.02-0.65-0.27-0.8c-0.29-0.15-0.65-0.02-0.8,0.27l0,0
			c-0.05,0.1-1.32,2.56-4.61,2.56c-3.32,0-4.6-2.53-4.61-2.56c-0.15-0.3-0.51-0.42-0.8-0.27c-0.3,0.15-0.42,0.5-0.27,0.8
			C7.38,15.95,8.95,19.05,13,19.05z"/>
	</g>
</g>
</svg>
