<?xml version="1.0" encoding="utf-8"?>
<!-- Generator: Adobe Illustrator 25.4.1, SVG Export Plug-In . SVG Version: 6.00 Build 0)  -->
<svg version="1.1" id="Layer_1" xmlns="http://www.w3.org/2000/svg" xmlns:xlink="http://www.w3.org/1999/xlink" x="0px" y="0px"
	 viewBox="0 0 42 42" style="enable-background:new 0 0 42 42;" xml:space="preserve">
<style type="text/css">
	.st0{fill:#FFFFFF;}
	.st1{opacity:0.6;fill:#FFFFFF;}
</style>
<g>
	<g>
		<path class="st0" d="M14.9,2.3c3.9-1.5,8.3-1.5,12.2-0.3c5.2,1.6,9.5,5.5,11.8,10.4c0.6,1.4,1.2,2.8,1.3,4.4
			C37.3,15.1,34.2,14,31,13c-5.1-1.8-10.4-3.1-15.3-5.6c-1.1-0.7-2.6-1.4-2.9-2.8C12.7,3.4,14,2.7,14.9,2.3"/>
		<path class="st0" d="M3.1,14c1.1-3.1,3-5.9,5.5-8c0.6,5.3,2.9,10.3,6.6,14.1c4.4,4.6,10.7,7.4,17.2,7.3c2.5,0.1,5-0.5,7.5-1
			c-2.4,8.8-12.1,14.7-21.1,13.3c-5.4-0.7-10.4-3.9-13.4-8.4C1.9,26.4,1.1,19.7,3.1,14z"/>
	</g>
	<path class="st1" d="M31,13c3.2,1,6.4,2.1,9.3,3.8l0.2,0.1c0.3,2,0.5,4.1,0.1,6.1c-1.5-0.6-2.6-1.7-3.9-2.7
		C34.3,18.4,31.9,16.1,31,13"/>
</g>
</svg>
