<?xml version="1.0" encoding="utf-8"?>
<!-- Generator: Adobe Illustrator 25.4.1, SVG Export Plug-In . SVG Version: 6.00 Build 0)  -->
<svg version="1.1" id="Layer_1" xmlns="http://www.w3.org/2000/svg" xmlns:xlink="http://www.w3.org/1999/xlink" x="0px" y="0px"
	 viewBox="0 0 42 42" style="enable-background:new 0 0 42 42;" xml:space="preserve">
<style type="text/css">
	.st0{fill:#FFFFFF;}
</style>
<g>
	<path class="st0" d="M29.86,15.1c-0.63-0.36-1.44-0.36-2.16,0l-5.04,2.97l-3.42,1.89l-4.95,2.97c-0.63,0.36-1.44,0.36-2.16,0
		l-3.87-2.34c-0.63-0.36-1.08-1.08-1.08-1.89v-4.5c0-0.72,0.36-1.44,1.08-1.89l3.87-2.25c0.63-0.36,1.44-0.36,2.16,0l3.87,2.34
		c0.63,0.36,1.08,1.08,1.08,1.89v2.97l3.42-1.98v-3.06c0-0.72-0.36-1.44-1.08-1.89l-7.2-4.23c-0.63-0.36-1.44-0.36-2.16,0
		l-7.38,4.32c-0.72,0.36-1.08,1.08-1.08,1.8v8.46c0,0.72,0.36,1.44,1.08,1.89l7.29,4.23c0.63,0.36,1.44,0.36,2.16,0l4.95-2.88
		l3.42-1.98l4.95-2.88c0.63-0.36,1.44-0.36,2.16,0l3.87,2.25c0.63,0.36,1.08,1.08,1.08,1.89v4.5c0,0.72-0.36,1.44-1.08,1.89
		l-3.78,2.25c-0.63,0.36-1.44,0.36-2.16,0l-3.87-2.25c-0.63-0.36-1.08-1.08-1.08-1.89v-2.88l-3.42,1.98v2.97
		c0,0.72,0.36,1.44,1.08,1.89l7.29,4.23c0.63,0.36,1.44,0.36,2.16,0l7.29-4.23c0.63-0.36,1.08-1.08,1.08-1.89v-8.55
		c0-0.72-0.36-1.44-1.08-1.89L29.86,15.1z"/>
</g>
</svg>
