<?xml version="1.0" encoding="utf-8"?>
<!-- Generator: Adobe Illustrator 25.4.1, SVG Export Plug-In . SVG Version: 6.00 Build 0)  -->
<svg version="1.1" id="Layer_1" xmlns="http://www.w3.org/2000/svg" xmlns:xlink="http://www.w3.org/1999/xlink" x="0px" y="0px"
	 viewBox="0 0 42 42" style="enable-background:new 0 0 42 42;" xml:space="preserve">
<style type="text/css">
	.st0{fill:#FFFFFF;}
</style>
<path class="st0" d="M4.8,30.96V15.51l11.72,8.82v6.63h2.99V23.7c0-0.55-0.26-1.06-0.69-1.39L4.6,11.62
	c-0.78-0.58-1.87-0.41-2.45,0.36c-0.22,0.3-0.34,0.66-0.35,1.04v17.94H4.8z M37.2,30.96V15.51l-11.72,8.82v6.63h-2.99V23.7
	c0-0.55,0.26-1.06,0.69-1.39L37.4,11.62c0.78-0.58,1.87-0.41,2.45,0.36c0.22,0.3,0.34,0.66,0.35,1.03v17.94H37.2z"/>
</svg>
