<?xml version="1.0" encoding="utf-8"?>
<!-- Generator: Adobe Illustrator 25.4.1, SVG Export Plug-In . SVG Version: 6.00 Build 0)  -->
<svg version="1.1" id="Layer_1" xmlns="http://www.w3.org/2000/svg" xmlns:xlink="http://www.w3.org/1999/xlink" x="0px" y="0px"
	 viewBox="0 0 26 26" style="enable-background:new 0 0 26 26;" xml:space="preserve">
<style type="text/css">
	.st0{fill:#FF3200;}
	.st1{fill:#FFFFFF;}
</style>
<g>
	<g>
		<circle class="st0" cx="13" cy="13" r="12.1"/>
	</g>
	<g>
		<g>
			<g>
				<circle class="st1" cx="17.54" cy="10.12" r="1.51"/>
			</g>
			<g>
				<circle class="st1" cx="8.45" cy="10.12" r="1.51"/>
			</g>
		</g>
	</g>
	<g>
		<g>
			<path class="st1" d="M7.85,19.21c0.22,0,0.44-0.13,0.54-0.34l0,0c0.05-0.11,1.32-2.63,4.6-2.63s4.55,2.53,4.6,2.63
				c0.14,0.3,0.5,0.43,0.81,0.28c0.3-0.14,0.43-0.5,0.28-0.8c-0.06-0.14-1.63-3.32-5.7-3.32c-4.06,0-5.63,3.18-5.69,3.32
				c-0.14,0.3-0.02,0.66,0.29,0.81C7.67,19.19,7.76,19.21,7.85,19.21z"/>
		</g>
	</g>
</g>
</svg>
