<?xml version="1.0" encoding="utf-8"?>
<!-- Generator: Adobe Illustrator 25.4.1, SVG Export Plug-In . SVG Version: 6.00 Build 0)  -->
<svg version="1.1" id="Layer_1" xmlns="http://www.w3.org/2000/svg" xmlns:xlink="http://www.w3.org/1999/xlink" x="0px" y="0px"
	 viewBox="0 0 376 26" style="enable-background:new 0 0 376 26;" xml:space="preserve">
<style type="text/css">
	.st0{fill:url(#SVGID_1_);}
	.st1{fill:#00BF10;}
	.st2{fill:#FFFFFF;}
	.st3{fill:#FF3200;}
	.st4{font-family:'DINPro-CondensedBold';}
	.st5{font-size:12px;}
</style>
<linearGradient id="SVGID_1_" gradientUnits="userSpaceOnUse" x1="36.7524" y1="13" x2="339.2476" y2="13">
	<stop  offset="0.1" style="stop-color:#00BF10"/>
	<stop  offset="0.5" style="stop-color:#FFCE00"/>
	<stop  offset="0.9" style="stop-color:#FF3200"/>
</linearGradient>
<path class="st0" d="M335.7,4.45c-2.19-2.19-5.22-3.55-8.55-3.55h-48.4h-60.5h-60.5h-60.5h0h-48.4c-6.69,0-12.1,5.42-12.1,12.1
	c0,1.26,0.19,2.46,0.54,3.59c-0.01,0.01-0.01,0.02,0.01,0.02c0.58,1.89,1.62,3.57,2.99,4.94c1.97,1.98,4.63,3.28,7.61,3.51
	c0.31,0.02,0.63,0.04,0.94,0.04h48.4h0h60.5h60.5h60.5h48.4c0.31,0,0.62-0.01,0.92-0.04c4.97-0.38,9.1-3.75,10.59-8.32
	c0.39-1.17,0.59-2.43,0.59-3.74C339.25,9.66,337.89,6.64,335.7,4.45z"/>
<g>
	<g>
		<g>
			<circle class="st1" cx="12.72" cy="13" r="12.1"/>
		</g>
		<g>
			<g>
				<path class="st2" d="M15.76,10.2c0,0.81,0.68,1.47,1.51,1.47c0.84,0,1.51-0.66,1.51-1.47c0-0.81-0.68-1.47-1.51-1.47
					C16.43,8.72,15.76,9.38,15.76,10.2z"/>
			</g>
			<g>
				<g>
					<g>
						<path class="st2" d="M6.67,10.2c0,0.81,0.68,1.47,1.51,1.47c0.84,0,1.51-0.66,1.51-1.47c0-0.81-0.68-1.47-1.51-1.47
							C7.34,8.72,6.67,9.38,6.67,10.2z"/>
					</g>
				</g>
			</g>
		</g>
		<g>
			<path class="st2" d="M12.72,19.05c4.06,0,5.62-3.1,5.68-3.23c0.15-0.3,0.02-0.65-0.27-0.8c-0.29-0.15-0.65-0.02-0.8,0.27l0,0
				c-0.05,0.1-1.32,2.56-4.61,2.56c-3.32,0-4.6-2.53-4.61-2.56c-0.15-0.3-0.51-0.42-0.8-0.27c-0.3,0.15-0.42,0.5-0.27,0.8
				C7.1,15.95,8.67,19.05,12.72,19.05z"/>
		</g>
	</g>
	<g>
		<g>
			<circle class="st3" cx="363.28" cy="13" r="12.1"/>
		</g>
		<g>
			<g>
				<g>
					<circle class="st2" cx="367.82" cy="10.12" r="1.51"/>
				</g>
				<g>
					<circle class="st2" cx="358.73" cy="10.12" r="1.51"/>
				</g>
			</g>
		</g>
		<g>
			<g>
				<path class="st2" d="M358.13,19.21c0.22,0,0.44-0.13,0.54-0.34l0,0c0.05-0.11,1.32-2.63,4.6-2.63c3.28,0,4.55,2.53,4.6,2.63
					c0.14,0.3,0.5,0.43,0.81,0.28c0.3-0.14,0.43-0.5,0.28-0.8c-0.06-0.14-1.63-3.32-5.7-3.32c-4.06,0-5.63,3.18-5.69,3.32
					c-0.14,0.3-0.02,0.66,0.29,0.81C357.95,19.19,358.04,19.21,358.13,19.21z"/>
			</g>
		</g>
	</g>
</g>
<text transform="matrix(1 0 0 1 46.752 17.6308)" class="st2 st4 st5">LOW RISK</text>
<text transform="matrix(1 0 0 1 286.3118 17.6308)" class="st2 st4 st5">HIGH RISK</text>
</svg>
