<?xml version="1.0" encoding="utf-8"?>
<!-- Generator: Adobe Illustrator 25.4.1, SVG Export Plug-In . SVG Version: 6.00 Build 0)  -->
<svg version="1.1" id="Layer_1" xmlns="http://www.w3.org/2000/svg" xmlns:xlink="http://www.w3.org/1999/xlink" x="0px" y="0px"
	 viewBox="0 0 42 42" style="enable-background:new 0 0 42 42;" xml:space="preserve">
<style type="text/css">
	.st0{fill:#FFFFFF;}
</style>
<g>
	<path class="st0" d="M10.47,27.44c0.19-0.19,0.45-0.3,0.72-0.3h24.9c0.45,0,0.68,0.55,0.36,0.87l-4.92,4.92
		c-0.19,0.19-0.45,0.3-0.72,0.3H5.91c-0.45,0-0.68-0.55-0.36-0.87L10.47,27.44z"/>
	<path class="st0" d="M10.47,9.07c0.19-0.19,0.45-0.3,0.72-0.3h24.9c0.45,0,0.68,0.55,0.36,0.87l-4.92,4.92
		c-0.19,0.19-0.45,0.3-0.72,0.3H5.91c-0.45,0-0.68-0.55-0.36-0.87L10.47,9.07z"/>
	<path class="st0" d="M31.53,18.2c-0.19-0.19-0.45-0.3-0.72-0.3H5.91c-0.45,0-0.68,0.55-0.36,0.87l4.92,4.92
		c0.19,0.19,0.45,0.3,0.72,0.3h24.9c0.45,0,0.68-0.55,0.36-0.87L31.53,18.2z"/>
</g>
</svg>
