<?xml version="1.0" encoding="utf-8"?>
<!-- Generator: Adobe Illustrator 25.4.1, SVG Export Plug-In . SVG Version: 6.00 Build 0)  -->
<svg version="1.1" id="Layer_1" xmlns="http://www.w3.org/2000/svg" xmlns:xlink="http://www.w3.org/1999/xlink" x="0px" y="0px"
	 viewBox="0 0 42 42" style="enable-background:new 0 0 42 42;" xml:space="preserve">
<style type="text/css">
	.st0{fill:#FFFFFF;}
	.st1{fill-rule:evenodd;clip-rule:evenodd;fill:#FFFFFF;}
</style>
<g>
	<path class="st0" d="M17.24,10.12c-0.43-0.06-0.45-0.08-0.25-0.1c0.39-0.06,1.3,0.02,1.94,0.16c1.48,0.35,2.82,1.26,4.24,2.84
		l0.37,0.43l0.54-0.08c2.29-0.37,4.63-0.08,6.59,0.82c0.54,0.25,1.38,0.74,1.48,0.86c0.04,0.04,0.1,0.31,0.14,0.58
		c0.14,0.97,0.08,1.69-0.23,2.24c-0.16,0.31-0.16,0.39-0.06,0.66c0.08,0.21,0.33,0.35,0.56,0.35c0.49,0,1.01-0.78,1.26-1.87
		l0.1-0.43l0.19,0.21c1.05,1.17,1.87,2.8,2,3.95l0.04,0.31l-0.19-0.27c-0.31-0.47-0.6-0.78-0.99-1.05c-0.7-0.47-1.44-0.62-3.4-0.72
		c-1.77-0.1-2.78-0.25-3.77-0.58c-1.69-0.56-2.55-1.28-4.55-3.93c-0.89-1.17-1.44-1.81-2-2.35C20.04,10.98,18.83,10.37,17.24,10.12z
		"/>
	<path class="st0" d="M32.58,12.73c0.04-0.78,0.14-1.3,0.37-1.77c0.08-0.19,0.16-0.35,0.19-0.35s-0.02,0.14-0.08,0.31
		c-0.16,0.45-0.19,1.09-0.08,1.81c0.14,0.93,0.21,1.05,1.19,2.06c0.45,0.47,0.99,1.07,1.19,1.32l0.35,0.45l-0.35-0.33
		c-0.43-0.41-1.42-1.19-1.65-1.3c-0.14-0.08-0.16-0.08-0.27,0.02c-0.08,0.08-0.1,0.21-0.1,0.8c-0.02,0.93-0.14,1.5-0.45,2.1
		c-0.16,0.31-0.19,0.25-0.04-0.1c0.1-0.27,0.12-0.39,0.12-1.28c0-1.79-0.21-2.22-1.46-2.94c-0.31-0.19-0.84-0.45-1.15-0.6
		c-0.33-0.14-0.58-0.27-0.56-0.27c0.04-0.04,1.26,0.31,1.73,0.51c0.72,0.29,0.84,0.31,0.93,0.29
		C32.52,13.41,32.56,13.25,32.58,12.73z"/>
	<path class="st0" d="M18.09,15.8c-0.86-1.19-1.42-3.05-1.3-4.43l0.04-0.43l0.21,0.04c0.37,0.06,1.01,0.31,1.32,0.49
		c0.82,0.49,1.19,1.17,1.54,2.86c0.1,0.49,0.25,1.07,0.31,1.26c0.1,0.31,0.49,1.03,0.82,1.48c0.23,0.33,0.08,0.49-0.43,0.45
		C19.82,17.45,18.77,16.73,18.09,15.8z"/>
	<path class="st0" d="M31.53,24.76c-4.08-1.65-5.52-3.07-5.52-5.48c0-0.35,0.02-0.64,0.02-0.64c0.02,0,0.16,0.12,0.35,0.27
		c0.82,0.66,1.75,0.95,4.32,1.32c1.5,0.23,2.37,0.39,3.15,0.66c2.49,0.82,4.04,2.51,4.41,4.8c0.1,0.66,0.04,1.91-0.12,2.57
		c-0.14,0.51-0.56,1.46-0.66,1.48c-0.02,0-0.06-0.1-0.06-0.27c-0.04-0.86-0.47-1.69-1.19-2.33C35.36,26.4,34.25,25.85,31.53,24.76z"
		/>
	<path class="st0" d="M28.65,25.44c-0.04-0.31-0.14-0.7-0.21-0.86l-0.1-0.31l0.19,0.23c0.27,0.31,0.47,0.68,0.66,1.19
		c0.14,0.39,0.14,0.51,0.14,1.15c0,0.62-0.02,0.76-0.14,1.11c-0.21,0.56-0.45,0.95-0.86,1.38c-0.74,0.76-1.71,1.17-3.09,1.36
		c-0.25,0.02-0.95,0.08-1.56,0.12c-1.54,0.08-2.57,0.25-3.5,0.58c-0.12,0.04-0.25,0.08-0.27,0.06c-0.04-0.04,0.6-0.41,1.11-0.66
		c0.72-0.35,1.46-0.54,3.09-0.82c0.8-0.12,1.63-0.29,1.83-0.37C27.97,28.96,28.98,27.37,28.65,25.44z"/>
	<path class="st0" d="M30.52,28.75c-0.54-1.17-0.66-2.29-0.37-3.34c0.04-0.1,0.08-0.21,0.12-0.21c0.04,0,0.16,0.06,0.29,0.14
		c0.25,0.16,0.76,0.45,2.08,1.17c1.67,0.91,2.61,1.61,3.27,2.41c0.58,0.7,0.93,1.5,1.09,2.49c0.1,0.56,0.04,1.89-0.1,2.45
		c-0.45,1.75-1.48,3.15-2.99,3.95c-0.23,0.12-0.41,0.21-0.43,0.21s0.06-0.21,0.19-0.45c0.49-1.05,0.56-2.06,0.19-3.19
		c-0.23-0.7-0.7-1.54-1.65-2.96C31.08,29.78,30.81,29.35,30.52,28.75z"/>
	<path class="st0" d="M15.18,35.05c1.52-1.28,3.4-2.18,5.13-2.47c0.74-0.12,1.98-0.08,2.66,0.1c1.09,0.29,2.08,0.91,2.59,1.67
		c0.49,0.74,0.72,1.38,0.95,2.8c0.08,0.56,0.19,1.13,0.21,1.26c0.16,0.74,0.49,1.32,0.91,1.63c0.64,0.47,1.75,0.49,2.84,0.08
		c0.19-0.06,0.35-0.12,0.35-0.1c0.04,0.04-0.51,0.41-0.89,0.6c-0.51,0.27-0.93,0.35-1.48,0.35c-0.99,0-1.83-0.51-2.51-1.54
		c-0.14-0.21-0.43-0.8-0.68-1.36c-0.72-1.67-1.09-2.16-1.94-2.72c-0.74-0.47-1.69-0.58-2.41-0.23c-0.95,0.45-1.19,1.67-0.54,2.41
		c0.27,0.31,0.76,0.56,1.17,0.62c0.76,0.1,1.42-0.49,1.42-1.26c0-0.49-0.19-0.78-0.68-1.01c-0.66-0.29-1.38,0.04-1.36,0.68
		c0,0.27,0.12,0.43,0.39,0.56c0.16,0.08,0.16,0.08,0.04,0.06c-0.6-0.12-0.74-0.86-0.27-1.34c0.58-0.58,1.79-0.33,2.2,0.47
		c0.16,0.33,0.19,0.99,0.04,1.4c-0.35,0.91-1.34,1.38-2.35,1.11c-0.68-0.19-0.97-0.37-1.79-1.21c-1.44-1.48-2-1.77-4.06-2.08
		l-0.39-0.06L15.18,35.05z"/>
	<path class="st1" d="M4.35,1.92c4.8,5.83,12.19,14.89,12.56,15.38c0.31,0.41,0.19,0.8-0.33,1.09c-0.29,0.16-0.89,0.33-1.17,0.33
		c-0.33,0-0.72-0.16-0.99-0.43c-0.19-0.19-0.99-1.36-2.8-4.18c-1.38-2.16-2.55-3.95-2.57-3.97c-0.08-0.04-0.08-0.04,2.43,4.45
		c1.59,2.82,2.1,3.83,2.1,3.95c0,0.27-0.08,0.41-0.41,0.78c-0.56,0.62-0.8,1.32-0.99,2.78c-0.21,1.63-0.76,2.78-2.35,4.74
		c-0.93,1.15-1.07,1.36-1.3,1.83c-0.29,0.58-0.37,0.91-0.41,1.65c-0.04,0.78,0.04,1.28,0.27,2.02c0.21,0.66,0.43,1.09,0.99,1.94
		c0.47,0.74,0.76,1.3,0.76,1.5c0,0.16,0.04,0.16,0.78,0c1.77-0.41,3.23-1.11,4.04-1.98c0.49-0.54,0.62-0.82,0.62-1.56
		c0-0.47-0.02-0.58-0.14-0.86c-0.21-0.45-0.6-0.82-1.44-1.4c-1.11-0.76-1.59-1.38-1.71-2.2c-0.1-0.7,0.02-1.17,0.64-2.47
		c0.64-1.34,0.8-1.89,0.91-3.25c0.06-0.86,0.16-1.21,0.41-1.48c0.27-0.29,0.49-0.39,1.13-0.47c1.05-0.14,1.73-0.41,2.26-0.93
		c0.47-0.43,0.68-0.86,0.7-1.5l0.02-0.47l-0.27-0.29C17.12,15.78,3.72,1.04,3.65,1.04C3.63,1.04,3.96,1.43,4.35,1.92z M10.67,31.2
		c0.23-0.39,0.1-0.89-0.27-1.13c-0.35-0.23-0.89-0.12-0.89,0.19c0,0.08,0.04,0.16,0.16,0.21c0.19,0.1,0.21,0.21,0.06,0.43
		c-0.14,0.23-0.14,0.43,0.04,0.58C10.08,31.7,10.47,31.57,10.67,31.2z"/>
	<path class="st1" d="M19.01,20.37c-0.49,0.14-0.97,0.68-1.11,1.21c-0.08,0.33-0.04,0.93,0.1,1.11c0.23,0.29,0.43,0.37,1.01,0.37
		c1.13,0,2.1-0.49,2.2-1.09c0.1-0.49-0.33-1.17-0.93-1.48C19.98,20.33,19.34,20.27,19.01,20.37z M20.33,21.4
		c0.16-0.25,0.1-0.51-0.21-0.7c-0.56-0.35-1.4-0.06-1.4,0.47c0,0.27,0.43,0.56,0.84,0.56C19.84,21.73,20.21,21.57,20.33,21.4z"/>
</g>
</svg>
