<?xml version="1.0" encoding="utf-8"?>
<!-- Generator: Adobe Illustrator 25.4.1, SVG Export Plug-In . SVG Version: 6.00 Build 0)  -->
<svg version="1.1" id="Layer_1" xmlns="http://www.w3.org/2000/svg" xmlns:xlink="http://www.w3.org/1999/xlink" x="0px" y="0px"
	 viewBox="0 0 42 42" style="enable-background:new 0 0 42 42;" xml:space="preserve">
<style type="text/css">
	.st0{fill:#FFFFFF;}
</style>
<g id="Layer_2">
	<g id="Layer_1-2">
		<path class="st0" d="M33.73,9.92l-4.27,2.18L8.83,22.6c-0.07-0.53-0.1-1.07-0.11-1.6c0.01-6.79,5.52-12.28,12.3-12.27
			c2.09,0,4.15,0.54,5.98,1.56l2.45-1.25l0.36-0.19c-6.71-4.87-16.09-3.38-20.96,3.33C6.99,14.75,5.99,17.84,5.99,21
			c0,0.38,0.01,0.76,0.04,1.14c0.08,1.1-0.5,2.14-1.48,2.64l-1.29,0.66v3.07l3.8-1.93l0,0l1.23-0.63l1.21-0.62l0,0l21.75-11.08
			L33.69,13l5.05-2.57V7.37L33.73,9.92z"/>
		<path class="st0" d="M38.74,13.5l-28,14.26L8.29,29l-5.03,2.56v3.06l4.99-2.54l4.27-2.18l20.65-10.52
			c0.07,0.54,0.1,1.07,0.11,1.62c0,6.79-5.51,12.28-12.3,12.28c-2.1,0-4.17-0.54-6-1.57l-0.15,0.08l-2.65,1.35
			c6.71,4.87,16.09,3.38,20.96-3.33c1.86-2.56,2.86-5.65,2.86-8.81c0-0.39-0.02-0.77-0.04-1.15c-0.08-1.1,0.5-2.14,1.48-2.64
			l1.29-0.66V13.5z"/>
	</g>
</g>
</svg>
