<?xml version="1.0" encoding="utf-8"?>
<!-- Generator: Adobe Illustrator 25.4.1, SVG Export Plug-In . SVG Version: 6.00 Build 0)  -->
<svg version="1.1" id="Layer_1" xmlns="http://www.w3.org/2000/svg" xmlns:xlink="http://www.w3.org/1999/xlink" x="0px" y="0px"
	 viewBox="0 0 42 42" style="enable-background:new 0 0 42 42;" xml:space="preserve">
<style type="text/css">
	.st0{fill:#FFFFFF;}
	.st1{opacity:0.6;fill:#FFFFFF;}
</style>
<g>
	<path id="_149931032" class="st0" d="M21,1.5C10.2,1.5,1.5,10.2,1.5,21c0,2.2,0.3,4.2,1,6.2h5.8V10.7L21,23.4l12.7-12.7v16.4h5.8
		c0.6-1.9,1-4,1-6.2C40.5,10.2,31.8,1.5,21,1.5L21,1.5z"/>
	<path id="_149931160" class="st1" d="M18.1,26.3l-5.5-5.5v10.3H8.3l-4,0c3.4,5.6,9.6,9.4,16.7,9.4s13.3-3.8,16.7-9.4h-8.2V20.8
		l-5.5,5.5L21,29.3L18.1,26.3L18.1,26.3L18.1,26.3z"/>
</g>
</svg>
