<?xml version="1.0" encoding="utf-8"?>
<!-- Generator: Adobe Illustrator 25.4.1, SVG Export Plug-In . SVG Version: 6.00 Build 0)  -->
<svg version="1.1" id="Layer_1" xmlns="http://www.w3.org/2000/svg" xmlns:xlink="http://www.w3.org/1999/xlink" x="0px" y="0px"
	 viewBox="0 0 42 42" style="enable-background:new 0 0 42 42;" xml:space="preserve">
<style type="text/css">
	.st0{fill:#FFFFFF;}
</style>
<g id="Layer_2_1_">
	<path class="st0" d="M25.34,41.24c-2.89,0-5-0.7-6.33-2.09c-1.23-1.18-1.94-2.8-1.99-4.5c-0.02-0.52,0.1-1.03,0.35-1.49
		c0.23-0.39,0.55-0.72,0.95-0.95c0.93-0.47,2.02-0.47,2.95,0c0.39,0.23,0.72,0.55,0.94,0.95c0.25,0.45,0.37,0.97,0.36,1.49
		c0.03,0.62-0.15,1.23-0.51,1.74c-0.29,0.41-0.72,0.72-1.2,0.88c0.48,0.6,1.15,1.02,1.9,1.18c0.84,0.24,1.71,0.37,2.59,0.37
		c1.16,0.01,2.3-0.33,3.26-0.97c1-0.71,1.74-1.72,2.12-2.88c0.48-1.39,0.72-2.84,0.7-4.31c0.04-1.53-0.22-3.05-0.76-4.48
		c-0.41-1.14-1.18-2.12-2.2-2.78c-0.95-0.6-2.04-0.91-3.16-0.9c-0.98,0.08-1.92,0.4-2.74,0.93l-2.03,1.02v-1.02l9.13-12.25H17.02
		V23.9c-0.04,0.92,0.21,1.82,0.7,2.6c0.48,0.69,1.29,1.08,2.12,1.02c0.76-0.02,1.5-0.27,2.1-0.74c0.68-0.5,1.28-1.11,1.76-1.81
		c0.04-0.12,0.12-0.23,0.23-0.3c0.08-0.07,0.19-0.11,0.31-0.11c0.22,0.02,0.43,0.11,0.59,0.25c0.21,0.24,0.33,0.54,0.32,0.86
		c-0.03,0.21-0.06,0.42-0.11,0.63c-0.45,1.09-1.2,2.02-2.17,2.69c-0.9,0.61-1.96,0.93-3.05,0.93c-2.74,0-4.64-0.54-5.69-1.62
		c-1.1-1.2-1.66-2.8-1.57-4.43V11.19H6.13V8.82h6.47V3.44l-1.48-1.48V0.75h4.3l1.61,0.84v7.24l16.72-0.05l1.66,1.67l-10.25,10.3
		c0.62-0.25,1.27-0.41,1.94-0.47c1.31,0.06,2.6,0.42,3.75,1.07c1.33,0.63,2.45,1.63,3.23,2.88c0.7,1.06,1.19,2.23,1.46,3.47
		c0.22,0.98,0.33,1.97,0.35,2.97c0.01,1.91-0.43,3.8-1.27,5.51c-0.8,1.66-2.14,3-3.8,3.8C29.1,40.82,27.23,41.25,25.34,41.24z"/>
</g>
</svg>
