<?xml version="1.0" encoding="utf-8"?>
<!-- Generator: Adobe Illustrator 25.2.3, SVG Export Plug-In . SVG Version: 6.00 Build 0)  -->
<svg version="1.1" id="Layer_1" xmlns="http://www.w3.org/2000/svg" xmlns:xlink="http://www.w3.org/1999/xlink" x="0px" y="0px"
	 viewBox="0 0 286 66" style="enable-background:new 0 0 286 66;" xml:space="preserve">
<style type="text/css">
	.st0{fill:#FFFFFF;}
</style>
<g>
	<g id="text" transform="translate(792.000000, 406.000000)">
		<path class="st0" d="M-743-357.1h8.8v-33.2h-8.8V-357.1z M-743.9-400c0-1.5,0.5-2.8,1.5-3.8c1-1,2.3-1.4,3.8-1.4
			c1.6,0,2.8,0.5,3.8,1.4s1.5,2.2,1.5,3.8c0,1.5-0.5,2.8-1.5,3.8c-1,0.9-2.3,1.4-3.8,1.4c-1.5,0-2.8-0.5-3.8-1.4
			C-743.4-397.1-743.9-398.5-743.9-400z"/>
		<path class="st0" d="M-713.9-390.5h9v6.7h-9v16c0,1.4,0.4,2.6,1.2,3.4c0.9,0.9,1.9,1.3,3.3,1.3c1.2,0,2.7-0.2,4.2-0.6l1.1,6.6
			c-2.6,0.7-5,1-7.4,1c-1.6,0-3.1-0.3-4.5-0.8s-2.5-1.2-3.5-2.2c-1-1-1.7-2.1-2.3-3.4c-0.6-1.3-0.8-2.8-0.8-4.4v-16.8h-6.1v-6.6h6.1
			v-9.8h8.5L-713.9-390.5L-713.9-390.5z"/>
		<path class="st0" d="M-699.6-381.3c0-1.4,0.3-2.8,1-4.1c0.7-1.2,1.5-2.3,2.6-3.2c1.1-0.9,2.5-1.6,4-2.1c1.5-0.5,3.3-0.8,5.1-0.8
			c1.9,0,3.9,0.2,5.9,0.6c2,0.4,4.1,1,6.2,1.7l-1.9,6.3c-1.6-0.7-3.2-1.1-4.8-1.5c-1.6-0.4-3.1-0.6-4.6-0.6c-1.5,0-2.8,0.3-3.7,1
			c-1,0.7-1.3,1.5-1.3,2.7c0,1,0.5,1.8,1.3,2.3c0.9,0.5,1.9,0.9,3.2,1.3c1.3,0.4,2.7,0.8,4.2,1c1.5,0.4,2.9,0.9,4.2,1.7
			c1.3,0.8,2.4,1.8,3.2,3c0.9,1.3,1.3,3,1.3,5.1c0,1.5-0.3,2.9-1,4.2c-0.7,1.2-1.5,2.4-2.7,3.3c-1.1,1-2.5,1.6-4.2,2.2
			c-1.6,0.5-3.4,0.8-5.3,0.8c-4.1,0-8.5-0.9-13-2.7l1.8-6.2c3.9,1.6,7.4,2.4,10.5,2.4c1.6,0,2.9-0.4,3.9-1c1-0.7,1.4-1.6,1.4-2.9
			c0-1-0.5-1.8-1.3-2.4c-0.9-0.6-1.9-1-3.2-1.4c-1.3-0.4-2.7-0.8-4.2-1.1c-1.5-0.4-2.8-0.9-4.2-1.7c-1.3-0.8-2.4-1.7-3.2-2.9
			C-699.3-377.5-699.6-379.2-699.6-381.3"/>
		<path class="st0" d="M-656-390.5h9v6.7h-9v16c0,1.4,0.4,2.6,1.2,3.4c0.9,0.9,1.9,1.3,3.3,1.3c1.2,0,2.7-0.2,4.2-0.6l1.1,6.6
			c-2.6,0.7-5,1-7.4,1c-1.6,0-3.1-0.3-4.5-0.8c-1.3-0.5-2.5-1.2-3.5-2.2c-1-1-1.7-2.1-2.3-3.4c-0.6-1.3-0.8-2.8-0.8-4.4v-16.8h-6.1
			v-6.6h6.1v-9.8h8.5L-656-390.5L-656-390.5z"/>
		<path class="st0" d="M-633-367.3c0,1.3,0.6,2.5,1.6,3.4c1.1,1,2.5,1.4,4.1,1.4c2.3,0,4.1-0.8,5.5-2.2c1.4-1.4,2.1-3.3,2.1-5.6v-2
			c-1.6-0.5-3.4-0.7-5.4-0.7c-2.5,0-4.4,0.5-5.8,1.5C-632.3-370.4-633-369-633-367.3 M-641.3-366.8c0-3.5,1.3-6.3,4-8.2
			c2.7-1.9,6.4-2.9,11.2-2.9c1,0,2.1,0.1,3.1,0.2c1,0.1,2.2,0.3,3.2,0.5v-1.8c0-1.7-0.6-3.1-1.8-4.2c-1.2-1-2.9-1.6-4.9-1.6
			c-3.3,0-6.9,0.8-10.8,2.4l-2.2-6.1c4.8-1.9,9.4-2.8,14-2.8c2.1,0,3.9,0.3,5.6,1c1.7,0.6,3.1,1.4,4.4,2.6c1.2,1,2.2,2.4,2.8,3.9
			c0.7,1.5,1,3.2,1,5v13.6c0,0.8,0.2,1.3,0.6,1.7c0.4,0.5,1,0.7,1.7,0.7c0.4,0,0.7,0,1-0.1c0.3,0,0.6-0.1,0.7-0.1l0.6,6.4
			c-0.8,0.1-1.4,0.3-2.2,0.4s-1.5,0.1-2.4,0.1c-1.7,0-3.1-0.4-4.4-1.2c-1.2-0.8-2.1-1.9-2.7-3.3c-1.4,1.4-3.1,2.6-4.9,3.3
			c-1.9,0.8-3.8,1.1-5.9,1.1c-1.7,0-3.3-0.3-4.8-0.8s-2.7-1.2-3.7-2.2s-1.8-2-2.4-3.3C-641-363.9-641.3-365.3-641.3-366.8"/>
		<path class="st0" d="M-602.2-390.6h6.8l1,4.6c1.3-1.7,2.9-3,4.8-4c1.9-0.9,3.9-1.4,6.1-1.4c2.5,0,4.6,0.6,6.5,1.6
			c1.8,1,3.2,2.6,4.2,4.5c1.5-2,3.3-3.5,5.3-4.6c2-1,4.2-1.5,6.6-1.5c1.8,0,3.4,0.3,4.9,0.9c1.5,0.6,2.9,1.4,3.9,2.6
			c1.1,1,2,2.4,2.6,3.9c0.6,1.5,1,3.1,1,4.9v22h-8.6v-20.6c0-1.9-0.6-3.4-1.8-4.7c-1.2-1.1-2.8-1.8-4.7-1.8c-2.2,0-4,0.8-5.4,2.3
			c-1.4,1.5-2.1,3.4-2.1,5.9v18.9h-8.6v-20.6c0-1.9-0.6-3.4-1.7-4.7c-1.1-1.1-2.7-1.8-4.6-1.8c-2.3,0-4.1,0.8-5.5,2.3
			c-1.4,1.5-2.1,3.4-2.1,5.9v18.9h-8.6L-602.2-390.6L-602.2-390.6z"/>
		<path class="st0" d="M-515.6-374c0-1.5-0.2-2.9-0.7-4.3c-0.4-1.3-1-2.5-1.8-3.3c-0.8-1-1.6-1.6-2.7-2.2c-1-0.6-2.2-0.8-3.4-0.8
			c-2.3,0-4.1,0.8-5.6,2.4c-1.4,1.5-2.2,3.5-2.2,6v4.5c0,1.2,0.2,2.4,0.6,3.3c0.4,1,1,1.9,1.6,2.7c0.7,0.8,1.5,1.3,2.5,1.7
			s2,0.6,3.1,0.6c1.2,0,2.4-0.3,3.4-0.8s1.9-1.2,2.7-2.2c0.8-0.9,1.3-2.1,1.8-3.3C-515.8-370.9-515.6-372.4-515.6-374z
			 M-540.3-390.6h6.8l1,4.3c1.2-1.6,2.7-2.9,4.5-3.8c1.8-0.9,3.8-1.3,6-1.3s4.2,0.5,6.1,1.3c1.8,0.9,3.4,2.1,4.8,3.6
			c1.3,1.5,2.4,3.3,3.1,5.5c0.8,2.1,1.1,4.5,1.1,7s-0.4,4.9-1.1,7c-0.8,2.1-1.8,4-3.1,5.5c-1.3,1.5-2.9,2.8-4.8,3.6
			c-1.8,0.9-3.9,1.3-6.1,1.3c-2,0-3.9-0.4-5.5-1.1c-1.7-0.8-3.1-1.9-4.3-3.4v20.2h-8.5V-390.6L-540.3-390.6z"/>
		<path class="st0" d="M-762-365.7c-1.3,1.3-3.1,1.9-5.4,1.9h-10.6v-13.8h10.6c2.2,0,4,0.7,5.4,1.9c1.3,1.2,2,2.9,2,4.9
			C-760-368.6-760.6-366.9-762-365.7z M-778.1-396.2h9.8c2,0,3.6,0.6,4.9,1.8c1.3,1.1,1.9,2.8,1.9,4.7s-0.7,3.4-1.9,4.6
			c-1.3,1.1-2.9,1.7-4.9,1.7h-9.8V-396.2z M-753.3-376.7c-1.4-2-3.3-3.4-5.7-4.3c1.9-0.9,3.3-2.1,4.5-3.8s1.7-3.7,1.7-6
			c0-1.8-0.4-3.4-1-4.8c-0.7-1.5-1.7-2.8-2.9-3.8c-1.2-1-2.8-1.9-4.5-2.5c-1.7-0.6-3.6-0.9-5.7-0.9h-24.1v6.1l0,0
			c3.7,0,6.7,3,6.7,6.7c0,3.7-2.9,6.7-6.7,6.7v5.5l0,0c3.7,0,6.7,3,6.7,6.7v1c0,3.7-2.9,6.7-6.7,6.7l0,0v6.1h25.2
			c2.2,0,4.1-0.3,5.9-0.9c1.8-0.6,3.3-1.4,4.7-2.6c1.3-1.1,2.4-2.5,3-4c0.8-1.5,1.1-3.2,1.1-5.1
			C-751.2-372.4-751.9-374.7-753.3-376.7z"/>
	</g>
</g>
</svg>
