<?xml version="1.0" encoding="utf-8"?>
<!-- Generator: Adobe Illustrator 25.2.3, SVG Export Plug-In . SVG Version: 6.00 Build 0)  -->
<svg version="1.1" id="Layer_1" xmlns="http://www.w3.org/2000/svg" xmlns:xlink="http://www.w3.org/1999/xlink" x="0px" y="0px"
	 viewBox="0 0 151 27" style="enable-background:new 0 0 151 27;" xml:space="preserve">
<style type="text/css">
	.st0{fill:#FEFEFE;}
</style>
<g>
	<path class="st0" d="M18.3,14.4c-0.3,1.4-0.6,3-0.9,4.6c-0.5,0-1.5,0.1-2.8,0.4c-1.7,0.3-3,0.5-3.9,0.5c-2.1,0-3.9-0.4-5.4-1.2
		c-1.6-0.8-2.8-2-3.6-3.5S0.4,12,0.4,10.1c0-1.8,0.5-3.5,1.4-5.1c0.9-1.5,2.2-2.7,3.8-3.6C7.1,0.6,8.9,0.2,11,0.2
		c0.9,0,2,0.1,3.4,0.3c1.1,0.1,1.9,0.2,2.4,0.2c0.1,1.3,0.3,2.8,0.6,4.6c0,0.1-0.1,0.2-0.4,0.2c-0.2,0-0.3-0.1-0.3-0.2
		c-0.3-1.2-1-2.2-2.1-3S12.3,1,10.9,1C8.7,1,6.9,1.9,5.5,3.7s-2.2,3.9-2.2,6.4c0,2.5,0.7,4.6,2.1,6.3c1.4,1.7,3.2,2.6,5.2,2.6
		c3.2,0,5.5-1.5,6.9-4.6c0.1-0.1,0.2-0.2,0.4-0.2C18.2,14.2,18.3,14.3,18.3,14.4z"/>
	<path class="st0" d="M28.4,8.7c0,0.4-0.1,0.7-0.3,0.9c-0.2,0.3-0.5,0.4-0.8,0.4c-0.4,0-0.8-0.1-1.2-0.4c-0.3-0.2-0.6-0.3-0.8-0.3
		c-0.6,0-1.2,0.3-1.8,1v6.1c0,0.8,0.1,1.3,0.4,1.6c0.3,0.3,0.9,0.5,1.7,0.6c0.1,0,0.2,0.1,0.2,0.4c0,0.3-0.1,0.4-0.2,0.4
		c-0.4,0-0.9,0-1.6-0.1c-0.7-0.1-1.3-0.1-1.8-0.1c-0.5,0-1,0-1.6,0.1c-0.6,0.1-1.1,0.1-1.4,0.1c-0.1,0-0.2-0.1-0.2-0.4
		c0-0.2,0.1-0.3,0.2-0.4c0.8-0.1,1.3-0.3,1.5-0.6c0.2-0.3,0.3-0.8,0.3-1.7v-5c0-0.7-0.1-1.2-0.3-1.4c-0.2-0.2-0.6-0.4-1.2-0.4
		c-0.1,0-0.2-0.1-0.2-0.4c0-0.2,0.1-0.3,0.2-0.3c0.9-0.2,1.6-0.5,2.2-0.8s1-0.5,1.1-0.7c0.1-0.1,0.2-0.2,0.3-0.2
		c0.3,0,0.4,0.1,0.4,0.2l-0.1,1.7c0.7-0.7,1.3-1.1,1.9-1.4c0.5-0.3,1-0.4,1.6-0.4c0.4,0,0.8,0.1,1.1,0.4C28.3,8,28.4,8.3,28.4,8.7z"
		/>
	<path class="st0" d="M42.3,8.1c0,0.2-0.1,0.4-0.2,0.4C41.5,8.5,41,8.7,40.7,9c-0.3,0.3-0.7,0.9-1.1,1.8l-6.4,13.8
		c-0.7,1.5-1.5,2.2-2.5,2.2c-0.5,0-0.8-0.1-1.1-0.4c-0.3-0.2-0.4-0.6-0.4-1c0-0.4,0.1-0.7,0.4-1c0.2-0.3,0.6-0.4,1-0.4
		c0.2,0,0.4,0.1,0.7,0.2c0.2,0.1,0.3,0.1,0.4,0.1c0.3,0,0.7-0.5,1.1-1.5l1.7-3.7l-3.2-8.5c-0.3-0.8-0.7-1.4-1-1.7
		c-0.3-0.3-0.8-0.5-1.4-0.6c-0.1,0-0.2-0.1-0.2-0.4c0-0.2,0.1-0.4,0.2-0.4c0.4,0,0.8,0,1.3,0.1c0.6,0.1,1.1,0.1,1.5,0.1
		c0.4,0,0.9,0,1.6-0.1c0.6-0.1,1-0.1,1.4-0.1c0.1,0,0.2,0.1,0.2,0.4c0,0.2-0.1,0.4-0.2,0.4c-0.9,0.1-1.4,0.4-1.4,0.8
		c0,0.3,0.1,0.8,0.4,1.5l2.2,5.6l2.6-5.6c0.2-0.5,0.3-0.9,0.3-1.3c0-0.6-0.4-0.9-1.3-1c-0.1,0-0.2-0.1-0.2-0.4
		c0-0.3,0.1-0.4,0.2-0.4c0.4,0,0.8,0,1.3,0.1c0.5,0.1,0.9,0.1,1.2,0.1c0.2,0,0.5,0,0.9-0.1c0.6-0.1,1-0.1,1.4-0.1
		C42.3,7.7,42.3,7.9,42.3,8.1z"/>
	<path class="st0" d="M55.6,13.7c0,1.8-0.6,3.3-1.8,4.4c-1.2,1.2-2.7,1.8-4.6,1.8c-1.1,0-2-0.2-2.8-0.6v4.2c0,0.9,0.1,1.5,0.3,1.7
		c0.2,0.3,0.7,0.5,1.5,0.6c0.1,0,0.2,0.1,0.2,0.4c0,0.2-0.1,0.4-0.2,0.4c-0.4,0-0.9,0-1.4-0.1c-0.6-0.1-1.2-0.1-1.6-0.1
		c-0.5,0-1,0-1.6,0.1c-0.6,0.1-1.1,0.1-1.4,0.1c-0.1,0-0.2-0.1-0.2-0.4c0-0.2,0.1-0.4,0.2-0.4c0.8-0.1,1.3-0.3,1.5-0.6
		c0.2-0.3,0.3-0.9,0.3-1.7v-12c0-0.7-0.1-1.2-0.3-1.4c-0.2-0.2-0.6-0.4-1.2-0.4c-0.1,0-0.2-0.1-0.2-0.4c0-0.2,0.1-0.3,0.2-0.3
		c0.9-0.2,1.6-0.5,2.2-0.7c0.6-0.3,1-0.5,1.2-0.7c0.1-0.1,0.2-0.2,0.3-0.2c0.3,0,0.4,0.1,0.4,0.2l-0.1,1.7c0.5-0.5,1.1-0.9,1.7-1.3
		c0.7-0.3,1.2-0.5,1.7-0.5C51.5,7.3,53,7.9,54,9C55,10.2,55.6,11.7,55.6,13.7z M52.8,13.6c0-1.5-0.3-2.7-1-3.5
		c-0.7-0.8-1.6-1.3-2.8-1.3c-0.5,0-0.9,0.1-1.3,0.3c-0.4,0.2-0.9,0.6-1.4,1.2v6.7c0,0.6,0.3,1.1,0.8,1.5c0.5,0.4,1.1,0.6,1.9,0.6
		c1.2,0,2.2-0.5,2.8-1.4C52.5,16.7,52.8,15.3,52.8,13.6z"/>
	<path class="st0" d="M65.6,8.6c0,0.5-0.1,0.7-0.4,0.7l-4-0.1v6.5c0,1.7,0.6,2.6,1.8,2.6c0.8,0,1.4-0.2,2-0.5c0.1,0,0.1,0,0.2,0.1
		c0.1,0.1,0.1,0.2,0.1,0.3c0,0.2-0.3,0.5-1,0.9c-0.7,0.4-1.4,0.6-2.3,0.6c-1,0-1.9-0.3-2.5-0.9c-0.6-0.6-0.9-1.5-0.9-2.5v-0.1
		l0.1-6.6c0-0.3-0.1-0.4-0.3-0.4h-1c-0.2,0-0.3-0.1-0.3-0.3c0-0.2,0.1-0.3,0.2-0.4c1.3-0.7,2.3-1.8,3.3-3.1c0.1-0.1,0.2-0.2,0.4-0.2
		c0.3,0,0.4,0.1,0.4,0.2l-0.1,2.6h4C65.5,7.9,65.6,8.1,65.6,8.6z"/>
	<path class="st0" d="M79,13.7c0,1.8-0.6,3.3-1.8,4.4c-1.2,1.2-2.7,1.7-4.6,1.7c-1.9,0-3.4-0.6-4.6-1.8c-1.2-1.2-1.8-2.6-1.8-4.4
		c0-1.8,0.6-3.3,1.8-4.5c1.2-1.2,2.7-1.8,4.6-1.8c1.9,0,3.4,0.6,4.6,1.8C78.4,10.3,79,11.8,79,13.7z M76.3,13.6c0-1.7-0.3-3-1-4
		s-1.5-1.5-2.6-1.5c-1.1,0-2,0.5-2.6,1.5c-0.6,1-1,2.3-1,4c0,1.6,0.3,2.9,1,3.9c0.6,1,1.5,1.4,2.6,1.4c1.1,0,2-0.5,2.6-1.4
		C75.9,16.6,76.3,15.3,76.3,13.6z"/>
	<path class="st0" d="M101.1,24.2c0,0.1,0,0.2-0.1,0.3c-0.1,0.1-0.5,0.2-1.1,0.3C99,24.9,98.1,25,97.3,25c-1.9,0-3.6-0.5-5.1-1.4
		c-1.5-1-2.6-2.2-3.3-3.8c-2.5-0.4-4.5-1.4-6-3.2c-1.5-1.8-2.2-3.9-2.2-6.4c0-2.9,0.9-5.2,2.8-7.1c1.9-1.9,4.3-2.8,7.2-2.8
		c2.9,0,5.3,0.9,7.2,2.8c1.9,1.9,2.8,4.3,2.8,7.1c0,2.6-0.7,4.7-2.2,6.5c-1.5,1.8-3.5,2.8-6,3.2c1.5,2.8,3.8,4.2,6.8,4.2
		c0.4,0,0.9,0,1.5-0.1C101,23.8,101.1,23.9,101.1,24.2z M97.7,10.1c0-2.7-0.6-4.8-1.9-6.5c-1.3-1.7-3-2.5-5.1-2.5
		c-2.1,0-3.8,0.8-5.1,2.5c-1.3,1.7-1.9,3.9-1.9,6.5c0,2.7,0.6,4.8,1.9,6.5c1.3,1.7,3,2.5,5.1,2.5c2.1,0,3.8-0.8,5.1-2.5
		C97.1,14.9,97.7,12.8,97.7,10.1z"/>
	<path class="st0" d="M115.4,18.5c0,0.2-0.1,0.3-0.2,0.3c-1.6,0.2-2.8,0.5-3.4,0.9c-0.1,0.1-0.3,0.1-0.4,0.1c-0.2,0-0.3-0.1-0.3-0.2
		l0.1-1.7c-1.3,1.2-2.6,1.8-3.6,1.8c-1.2,0-2.2-0.4-2.9-1.1c-0.7-0.7-1-1.7-1-2.9v-5.1c0-0.8-0.1-1.3-0.3-1.6
		c-0.2-0.3-0.6-0.4-1.2-0.4c-0.1,0-0.2,0-0.4,0c-0.1,0-0.2-0.1-0.2-0.3c0-0.3,0.1-0.4,0.2-0.4c1,0,2.4-0.2,4.1-0.6
		c0.2,0,0.2,0.1,0.2,0.3v7.5c0,1,0.2,1.8,0.6,2.2c0.4,0.5,1,0.7,1.8,0.7c0.5,0,1-0.1,1.4-0.3s0.8-0.6,1.3-1.1v-6
		c0-0.8-0.1-1.3-0.3-1.6c-0.2-0.3-0.6-0.4-1.3-0.4c-0.1,0-0.2,0-0.4,0c-0.1,0-0.2-0.1-0.2-0.3c0-0.3,0.1-0.4,0.2-0.4
		c1,0,2.4-0.2,4.1-0.6c0.2,0,0.2,0.1,0.2,0.3v8.7c0,0.6,0.1,1,0.3,1.3c0.2,0.2,0.6,0.4,1.2,0.5C115.3,18.2,115.4,18.3,115.4,18.5z"
		/>
	<path class="st0" d="M125,19.7c-0.5,0-0.9-0.1-1.3-0.4c-0.4-0.2-0.6-0.6-0.8-1c-1,1-2.2,1.5-3.8,1.5c-0.8,0-1.5-0.3-2-0.8
		c-0.5-0.5-0.8-1.1-0.8-1.9c0-1.9,2.2-3.4,6.6-4.5l0.1-2.1v-0.1c0-0.7-0.2-1.2-0.5-1.6s-0.7-0.6-1.3-0.6c-0.5,0-1,0.1-1.4,0.4
		c-0.4,0.3-0.6,0.6-0.6,1c0,0.6-0.2,1-0.5,1.4s-0.7,0.5-1.2,0.5c-0.3,0-0.5-0.1-0.7-0.3c-0.2-0.2-0.3-0.4-0.3-0.7
		c0-0.7,0.6-1.4,1.9-2.2c1.3-0.8,2.4-1.1,3.5-1.1c1,0,1.8,0.3,2.4,0.9c0.6,0.6,0.9,1.4,0.9,2.3v0.2l-0.2,6.1v0.1
		c0,0.9,0.3,1.4,0.9,1.4c0.3,0,0.6-0.2,1-0.5l0.1,0c0.1,0,0.1,0,0.2,0.1c0.1,0.1,0.1,0.2,0.1,0.3c0,0.3-0.3,0.6-0.8,1
		S125.6,19.7,125,19.7z M122.9,13.6c-2.6,0.6-3.9,1.6-3.9,3c0,1.3,0.5,1.9,1.5,1.9c0.5,0,0.9-0.1,1.4-0.4c0.5-0.2,0.8-0.5,0.9-0.9
		L122.9,13.6z"/>
	<path class="st0" d="M141.7,19.1c0,0.3-0.1,0.4-0.2,0.4c-0.4,0-0.8,0-1.3-0.1c-0.6-0.1-1.1-0.1-1.5-0.1c-0.5,0-1,0-1.6,0.1
		c-0.5,0.1-1,0.1-1.3,0.1c-0.1,0-0.2-0.1-0.2-0.4c0-0.2,0.1-0.3,0.2-0.4c0.6-0.1,1-0.2,1.2-0.5c0.2-0.3,0.3-0.9,0.3-1.8v-4.5
		c0-1-0.2-1.8-0.6-2.2c-0.4-0.5-1-0.7-1.8-0.7c-0.5,0-1,0.1-1.4,0.3c-0.4,0.2-0.8,0.6-1.3,1.1v6.1c0,0.9,0.1,1.5,0.3,1.8
		c0.2,0.3,0.6,0.5,1.2,0.5c0.1,0,0.2,0.1,0.2,0.4c0,0.3-0.1,0.4-0.2,0.4c-0.4,0-0.8,0-1.4-0.1c-0.6-0.1-1.1-0.1-1.5-0.1
		c-0.4,0-0.9,0-1.5,0.1c-0.5,0.1-1,0.1-1.4,0.1c-0.1,0-0.2-0.1-0.2-0.4c0-0.2,0.1-0.3,0.2-0.4c0.8-0.1,1.3-0.3,1.5-0.6
		c0.2-0.3,0.3-0.9,0.3-1.7v-5c0-0.7-0.1-1.2-0.3-1.4c-0.2-0.2-0.6-0.4-1.2-0.4c-0.1,0-0.2-0.1-0.2-0.4c0-0.2,0.1-0.3,0.2-0.3
		c0.9-0.2,1.6-0.5,2.2-0.8c0.6-0.3,1-0.5,1.1-0.7c0.1-0.1,0.2-0.2,0.3-0.2c0.3,0,0.4,0.1,0.4,0.2l-0.1,1.7c1.3-1.2,2.5-1.8,3.6-1.8
		c1.2,0,2.2,0.4,2.9,1.1c0.7,0.7,1,1.7,1,2.9v5.2c0,0.9,0.1,1.5,0.3,1.7c0.2,0.3,0.7,0.5,1.5,0.6C141.6,18.7,141.7,18.8,141.7,19.1z
		"/>
	<path class="st0" d="M150.8,8.6c0,0.5-0.1,0.7-0.4,0.7l-4-0.1v6.5c0,1.7,0.6,2.6,1.8,2.6c0.8,0,1.4-0.2,2-0.5c0.1,0,0.1,0,0.2,0.1
		c0.1,0.1,0.1,0.2,0.1,0.3c0,0.2-0.3,0.5-1,0.9c-0.7,0.4-1.4,0.6-2.3,0.6c-1,0-1.9-0.3-2.5-0.9c-0.6-0.6-0.9-1.5-0.9-2.5v-0.1
		l0.1-6.6c0-0.3-0.1-0.4-0.3-0.4h-1c-0.2,0-0.3-0.1-0.3-0.3c0-0.2,0.1-0.3,0.2-0.4c1.3-0.7,2.3-1.8,3.3-3.1c0.1-0.1,0.2-0.2,0.4-0.2
		c0.3,0,0.4,0.1,0.4,0.2l-0.1,2.6h4C150.6,7.9,150.8,8.1,150.8,8.6z"/>
</g>
</svg>
