<?xml version="1.0" encoding="utf-8"?>
<!-- Generator: Adobe Illustrator 25.2.3, SVG Export Plug-In . SVG Version: 6.00 Build 0)  -->
<svg version="1.1" id="Layer_1" xmlns="http://www.w3.org/2000/svg" xmlns:xlink="http://www.w3.org/1999/xlink" x="0px" y="0px"
	 viewBox="0 0 123 26" style="enable-background:new 0 0 123 26;" xml:space="preserve">
<style type="text/css">
	.st0{fill:#FFFFFF;}
</style>
<g>
	<path class="st0" d="M6.6,5.8c2.2,0,3.8,1,4.6,2.2V6.3L14,6v13.6c0,3.6-2.4,6.4-6.5,6.4c-3.6,0-6.2-1.8-6.5-4.7h2.7
		c0.4,1.4,1.9,2.3,3.8,2.3c2.1,0,3.7-1.3,3.7-4v-2.2c-0.8,1.1-2.4,2.2-4.6,2.2c-3.5,0-6.3-2.8-6.3-7S3.1,5.8,6.6,5.8z M7.2,8.2
		c-2.1,0-4,1.6-4,4.4c0,2.9,2,4.6,4,4.6c2.1,0,4-1.6,4-4.5C11.2,9.8,9.2,8.2,7.2,8.2z"/>
	<path class="st0" d="M17.2,0.4L20,0.1v19.3h-2.8V0.4z"/>
	<path class="st0" d="M28.6,5.8c2.3,0,3.8,1.1,4.6,2.2V6.3L36,6v13.3h-2.8v-2c-0.8,1.1-2.4,2.2-4.7,2.2c-3.5,0-6.3-2.8-6.3-7
		S25.1,5.8,28.6,5.8z M29.2,8.2c-2.1,0-4,1.6-4,4.4c0,2.9,2,4.6,4,4.6c2.1,0,4-1.6,4-4.5C33.3,9.8,31.3,8.2,29.2,8.2z"/>
	<path class="st0" d="M72.5,11.9c0-2.4-1.3-3.7-3.3-3.7c-2,0-3.4,1.3-3.4,3.7v7.5H63v-13L65.8,6v1.5c0.9-1.1,2.4-1.7,4-1.7
		c3.1,0,5.5,2,5.5,5.7v7.9h-2.7V11.9z"/>
	<path class="st0" d="M84.2,19.6c-3.8,0-6.7-2.7-6.7-6.9s3-6.9,6.8-6.9c3.8,0,6.8,2.7,6.8,6.9S88,19.6,84.2,19.6z M84.2,17.2
		c2.1,0,4.1-1.5,4.1-4.5c0-3-2-4.5-4-4.5c-2.1,0-3.9,1.5-3.9,4.5C80.3,15.7,82.1,17.2,84.2,17.2z"/>
	<path class="st0" d="M99.5,5.8c1.7,0,3.6,0.8,4.6,2.1V1.1l2.8-0.3v18.6h-2.8v-2c-0.8,1.2-2.4,2.2-4.6,2.2c-3.5,0-6.3-2.8-6.3-7
		S96,5.8,99.5,5.8z M100.1,8.2c-2.1,0-4,1.6-4,4.4c0,2.9,2,4.6,4,4.6c2.1,0,4-1.6,4-4.5C104.1,9.8,102.2,8.2,100.1,8.2z"/>
	<path class="st0" d="M116.2,19.6c-3.8,0-6.7-2.7-6.7-6.9s2.7-6.9,6.7-6.9c3.8,0,6.5,2.6,6.5,6.6c0,0.5,0,0.9-0.1,1.4h-10.2
		c0.2,2.2,1.8,3.5,3.8,3.5c1.7,0,2.6-0.8,3.1-1.9h3C121.6,17.7,119.5,19.6,116.2,19.6z M112.4,11.5h7.4c0-2.1-1.7-3.4-3.7-3.4
		C114.2,8.1,112.7,9.4,112.4,11.5z"/>
	<path class="st0" d="M53.1,9.6c0-0.9,0.8-1.5,2.3-1.5c1.5,0,2.3,0.8,2.5,1.9l2.6-1.1c-0.6-2-2.4-3.1-5-3.1c-3.1,0-5.1,1.7-5.1,3.9
		c0,4.9,7.8,3.4,7.8,6c0,0.9-0.8,1.6-2.4,1.6c-1.5,0-2.5-0.9-2.7-1.9l-2.6,1.1c0.7,1.8,2.7,3.2,5.3,3.2c3.1,0,5.1-1.7,5.1-3.9
		C60.6,10.8,53.1,12.3,53.1,9.6z"/>
	<path class="st0" d="M41.6,9.6c0-0.9,0.8-1.5,2.3-1.5c1.5,0,2.3,0.8,2.5,1.9l2.6-1.1c-0.6-2-2.4-3.1-5-3.1c-3.1,0-5.1,1.7-5.1,3.9
		c0,4.9,7.8,3.4,7.8,6c0,0.9-0.8,1.6-2.4,1.6c-1.5,0-2.5-0.9-2.7-1.9l-2.6,1.1c0.7,1.8,2.7,3.2,5.3,3.2c3.1,0,5.1-1.7,5.1-3.9
		C49.1,10.8,41.6,12.3,41.6,9.6z"/>
</g>
</svg>
