<?xml version="1.0" encoding="utf-8"?>
<!-- Generator: Adobe Illustrator 25.2.3, SVG Export Plug-In . SVG Version: 6.00 Build 0)  -->
<svg version="1.1" id="Layer_1" xmlns="http://www.w3.org/2000/svg" xmlns:xlink="http://www.w3.org/1999/xlink" x="0px" y="0px"
	 viewBox="0 0 50 50" style="enable-background:new 0 0 50 50;" xml:space="preserve">
<style type="text/css">
	.st0{fill:#FFFFFF;}
</style>
<g>
	<g>
		<path class="st0" d="M29.8,0.1C15.5-0.8,8.7,18,22.4,25.1c-1.4-1.1-2.5-2.8-3-4.8c-0.8-2.8-0.3-5.9,1.2-8.3l0.3,0.2
			c-1.5,2.4-1.9,5.3-1.2,8c0.6,2,1.7,3.8,3.2,4.8c-2.5-2.8-1.5-7.2,2.4-9c2.6-1.2,4.6-5.9,2.7-8.9C26.4,4.5,26.8,1.7,29.8,0.1z
			 M22.8,11.2l-0.9,1.4L21.6,11l-1.6-0.4l1.4-0.8l-0.1-1.6l1.2,1.1l1.5-0.6l-0.7,1.5l1,1.2L22.8,11.2z"/>
		<path class="st0" d="M23.8,24.3c0.6-1.7,1.9-3.2,3.6-4.4c2.5-1.6,5.5-2.1,8.3-1.4l-0.1,0.4c-2.7-0.7-5.6-0.2-8,1.4
			c-1.8,1.2-3,2.8-3.6,4.5c1.8-3.2,6.4-3.6,9.3-0.5c1.9,2.1,7.1,2.6,9.3-0.1c2-2.4,4.8-2.9,7.2-0.5C46.3,9.7,26.3,9,23.8,24.3z
			 M38.3,20.6L37.5,22l-0.3-1.6L35.6,20l1.4-0.8l-0.1-1.6l1.2,1.1l1.5-0.6l-0.7,1.5l1,1.2L38.3,20.6z"/>
		<path class="st0" d="M25,25.4c1.8,0.1,3.7,0.8,5.3,2.1c2.3,1.8,3.7,4.6,3.9,7.5l-0.4,0c-0.2-2.8-1.6-5.4-3.8-7.2
			c-1.6-1.3-3.6-2-5.4-2c3.7,0.7,5.4,4.9,3.3,8.7c-1.4,2.4-0.3,7.5,3,8.8c2.9,1.1,4.3,3.7,2.7,6.7C45.8,42.3,40.2,23,25,25.4z
			 M34.2,38.3l-0.9,1.4L33,38.1l-1.6-0.4l1.4-0.8l-0.1-1.6l1.2,1.1l1.5-0.6l-0.7,1.5l1,1.2L34.2,38.3z"/>
		<path class="st0" d="M24.3,26.9c0.5,1.7,0.4,3.7-0.4,5.7c-1,2.7-3.2,4.9-5.9,6l-0.1-0.4c2.6-1,4.7-3.2,5.7-5.8
			c0.7-2,0.8-4.1,0.2-5.8c0.4,3.7-3,6.7-7.2,5.8c-2.8-0.6-7.2,2.1-7.4,5.6C9,41.1,7,43.2,3.7,42.7C14.7,51.9,31.3,40.6,24.3,26.9z
			 M16.1,39.8l-0.9,1.4l-0.3-1.6l-1.6-0.4l1.4-0.8l-0.1-1.6l1.2,1.1l1.5-0.6l-0.7,1.5l1,1.2L16.1,39.8z"/>
		<path class="st0" d="M17.2,28.1c-2.9-0.1-5.7-1.5-7.6-3.7l0.3-0.2c1.8,2.2,4.5,3.5,7.3,3.6c2.1,0.1,4.1-0.5,5.6-1.6
			c-3.4,1.5-7.3-0.8-7.8-5c-0.3-2.8-4.2-6.2-7.6-5.4c-3,0.8-5.6-0.5-6.2-3.8c-5.3,13.3,10.5,25.6,21.4,14.7
			C21.2,27.7,19.2,28.2,17.2,28.1z M8.2,24.4l-0.3-1.6l-1.6-0.4l1.4-0.8L7.6,20l1.2,1.1l1.5-0.6L9.6,22l1,1.2L9,23L8.2,24.4z"/>
	</g>
</g>
</svg>
