<?xml version="1.0" encoding="utf-8"?>
<!-- Generator: Adobe Illustrator 25.2.3, SVG Export Plug-In . SVG Version: 6.00 Build 0)  -->
<svg version="1.1" id="Layer_1" xmlns="http://www.w3.org/2000/svg" xmlns:xlink="http://www.w3.org/1999/xlink" x="0px" y="0px"
	 viewBox="0 0 277 49" style="enable-background:new 0 0 277 49;" xml:space="preserve">
<style type="text/css">
	.st0{fill:#FFFFFF;}
	.st1{fill:#828EA6;}
	.st2{fill:#00AFAA;}
</style>
<g>
	<g>
		<rect x="66.1" y="0.5" class="st0" width="1.2" height="48"/>
	</g>
	<polygon class="st0" points="120.4,31.8 98.6,6.7 96.7,6.7 96.7,42.6 101.8,42.6 101.8,17.7 123.4,42.6 125.3,42.6 125.3,6.7 
		120.4,6.7 	"/>
	<g>
		<rect x="220.6" y="6.7" class="st0" width="21.2" height="4.9"/>
		<polygon class="st0" points="220.6,20.8 220.6,42.6 241.7,42.6 241.7,37.7 225.5,37.7 225.5,25.7 241.7,25.7 241.7,20.8 		"/>
	</g>
	<rect x="81.1" y="6.7" class="st0" width="4.9" height="35.9"/>
	<rect x="166" y="6.7" class="st0" width="4.9" height="35.9"/>
	<g>
		<path class="st0" d="M156.8,34.2c0,1.6-0.4,3-1.2,4.3c-0.8,1.3-1.9,2.3-3.3,3.1c-1.4,0.7-3,1.1-4.6,1.1h-13.1v-4.8h13.2
			c1.2,0,2.2-0.3,2.9-1c0.7-0.7,1.1-1.5,1.1-2.5c0-0.6-0.1-1.2-0.4-1.8c-0.3-0.6-0.8-1.3-1.6-2c-0.4-0.4-1.9-1.5-4.4-3.2
			c-1-0.7-2-1.5-2.8-2.2l0,0c-3-2.1-4.8-3.7-5.5-4.7c-1.3-1.7-2-3.5-2-5.5c0-1.6,0.4-3,1.2-4.3c0.8-1.3,1.9-2.3,3.3-3.1
			c1.4-0.7,2.9-1.1,4.6-1.1h11.7v4.8h-11.8c-1.2,0-2.2,0.3-3,1c-0.7,0.7-1.1,1.5-1.1,2.5c0,0.6,0.1,1.2,0.4,1.8
			c0.3,0.6,0.8,1.3,1.6,2c0.4,0.4,1.9,1.5,4.4,3.2c1,0.7,2,1.5,2.8,2.2l0,0c1.5,1.1,2.7,2,3.6,2.8c0.9,0.8,1.6,1.4,1.9,1.9
			C156.1,30.4,156.8,32.2,156.8,34.2z"/>
	</g>
	<path class="st0" d="M251.8,42.6h4.9v-16h0.8l12.4,16h6.1l-12.4-16c2.3-0.1,4.2-0.5,5.6-1.1c1.8-0.8,3.2-2,4.1-3.5
		c1-1.5,1.4-3.3,1.4-5.3c0-2.4-0.7-4.5-2.1-6.2c-1.4-1.7-3.2-2.8-5.4-3.3c-1.4-0.3-4-0.5-7.9-0.5h-7.6v4.9h10.3
		c2.3,0,3.9,0.2,4.8,0.6c0.9,0.4,1.6,0.9,2.1,1.7c0.5,0.8,0.8,1.7,0.8,2.7c0,1.1-0.3,2-0.8,2.8c-0.5,0.8-1.3,1.4-2.2,1.8
		c-1,0.4-2.6,0.6-4.8,0.6l-10.1,0.1V42.6z"/>
	<path class="st0" d="M193.2,6.6h-12.3v36h12.3c11.6,0,19.4-7.3,19.4-18C212.6,13.9,204.8,6.6,193.2,6.6z M192.9,37.7h-6.5V11.5h6.5
		c8.6,0,14.2,5.1,14.2,13.1S201.5,37.7,192.9,37.7z"/>
	<g>
		<g>
			<path class="st1" d="M28.5,11.3c2.7,0,5.3,0.7,7.6,1.8L29,0.8c-0.1-0.2-0.3-0.3-0.5-0.3c-0.2,0-0.4,0.1-0.5,0.3l-7.1,12.3
				C23.2,12,25.8,11.3,28.5,11.3z"/>
			<path class="st1" d="M56,47.6l-0.1-0.1L45.3,29c-0.2,3.6-1.5,6.9-3.6,9.5l5.6,9.7c0.1,0.2,0.3,0.3,0.5,0.3h0h7.7h0
				c0.2,0,0.4-0.1,0.5-0.3C56.1,48,56.1,47.8,56,47.6z"/>
			<path class="st1" d="M7.4,46.8c-0.5-0.5-0.7-1.1-0.7-1.7s0.3-1.3,0.7-1.7l6.7-6.7c-1.4-2.4-2.2-5-2.4-7.8L1,47.6
				c-0.1,0.2-0.1,0.4,0,0.6c0.1,0.2,0.3,0.3,0.5,0.3h7.5L7.4,46.8z"/>
		</g>
		<path class="st0" d="M11.5,48.4c-0.2,0-0.5-0.1-0.7-0.3l-2.3-2.3c-0.2-0.2-0.3-0.4-0.3-0.7c0-0.3,0.1-0.5,0.3-0.7l10-10
			c0.2-0.2,0.4-0.3,0.7-0.3s0.5,0.1,0.7,0.3l2.3,2.3c0.2,0.2,0.3,0.4,0.3,0.7c0,0.3-0.1,0.5-0.3,0.7l-10,10
			C12,48.3,11.7,48.4,11.5,48.4z"/>
		<g>
			<path class="st0" d="M18.5,27.1c0.5-4.8,4.3-8.6,9-9v-5.2c-7.7,0.5-13.8,6.6-14.3,14.3H18.5z"/>
			<path class="st0" d="M29.5,18.1c4.8,0.5,8.6,4.3,9,9h5.2c-0.5-7.7-6.6-13.8-14.3-14.3V18.1z"/>
			<path class="st0" d="M27.5,38.1c-4.8-0.5-8.6-4.3-9-9h-5.2c0.5,7.7,6.6,13.8,14.3,14.3V38.1z"/>
			<path class="st2" d="M38.5,29.1c-0.5,4.8-4.3,8.6-9,9v5.2c7.7-0.5,13.8-6.6,14.3-14.3H38.5z"/>
		</g>
	</g>
	<g>
		<polygon class="st0" points="52.3,6.7 53.3,6.7 53.3,10.6 53.9,10.6 53.9,6.7 54.9,6.7 54.9,6.1 52.3,6.1 		"/>
		<polygon class="st0" points="60.2,6.2 60.1,6.1 59.9,6.1 58.3,9.5 56.6,6.2 56.5,6.1 56.4,6.1 55.7,10.6 56.3,10.6 56.7,7.8 
			58.1,10.6 58.4,10.6 59.8,7.8 60.2,10.6 60.8,10.6 		"/>
	</g>
</g>
</svg>
