<?xml version="1.0" encoding="utf-8"?>
<!-- Generator: Adobe Illustrator 25.2.3, SVG Export Plug-In . SVG Version: 6.00 Build 0)  -->
<svg version="1.1" id="Layer_1" xmlns="http://www.w3.org/2000/svg" xmlns:xlink="http://www.w3.org/1999/xlink" x="0px" y="0px"
	 viewBox="0 0 84 73" style="enable-background:new 0 0 84 73;" xml:space="preserve">
<style type="text/css">
	.st0{fill:#828EA6;}
	.st1{fill:#2E3440;}
	.st2{fill:#00AFAA;}
</style>
<g>
	<g>
		<path class="st0" d="M42,16.7c4.1,0,8,1,11.4,2.7L42.8,1c-0.1-0.3-0.4-0.5-0.8-0.5c-0.3,0-0.6,0.2-0.8,0.5L30.6,19.4
			C34.1,17.8,38,16.7,42,16.7z"/>
		<path class="st0" d="M83.2,71.1L83.1,71L67.2,43.2c-0.3,5.4-2.2,10.4-5.4,14.2l8.4,14.6c0.2,0.3,0.5,0.4,0.8,0.4l0,0h11.6l0,0
			c0.3,0,0.6-0.1,0.8-0.4C83.4,71.8,83.4,71.4,83.2,71.1z"/>
		<path class="st0" d="M10.4,69.9c-0.8-0.8-1.1-1.6-1.1-2.6c0-0.9,0.5-1.9,1.1-2.5l10.1-10.1c-2.1-3.6-3.3-7.5-3.6-11.7l-16.1,28
			c-0.2,0.3-0.2,0.6,0,0.9c0.1,0.3,0.4,0.4,0.8,0.4h11.2L10.4,69.9z"/>
	</g>
	<path class="st1" d="M16.5,72.4c-0.3,0-0.8-0.2-1.1-0.5L12,68.5c-0.3-0.3-0.4-0.6-0.4-1.1c0-0.4,0.2-0.8,0.4-1l15-15
		c0.3-0.3,0.6-0.5,1.1-0.5c0.5,0,0.8,0.2,1.1,0.5l3.4,3.5c0.3,0.3,0.4,0.6,0.4,1s-0.1,0.8-0.4,1l-15,15
		C17.3,72.2,16.8,72.4,16.5,72.4z"/>
	<g>
		<path class="st1" d="M27,40.4c0.8-7.2,6.4-12.9,13.5-13.5v-7.8C29,19.9,19.8,29,19.1,40.5h8V40.4z"/>
		<path class="st1" d="M43.5,26.9c7.2,0.8,12.9,6.5,13.5,13.5h7.8C64.1,28.9,54.9,19.7,43.4,19v8H43.5z"/>
		<path class="st1" d="M40.5,56.9c-7.2-0.8-12.9-6.5-13.5-13.5h-7.8c0.8,11.5,9.9,20.7,21.5,21.5v-8H40.5z"/>
		<path class="st2" d="M57,43.4c-0.8,7.2-6.4,12.9-13.5,13.5v7.8c11.6-0.8,20.7-9.9,21.4-21.4H57V43.4z"/>
	</g>
</g>
</svg>
