<?xml version="1.0" encoding="utf-8"?>
<!-- Generator: Adobe Illustrator 25.2.3, SVG Export Plug-In . SVG Version: 6.00 Build 0)  -->
<svg version="1.1" id="Layer_1" xmlns="http://www.w3.org/2000/svg" xmlns:xlink="http://www.w3.org/1999/xlink" x="0px" y="0px"
	 viewBox="0 0 294 55" style="enable-background:new 0 0 294 55;" xml:space="preserve">
<style type="text/css">
	.st0{fill:#2E3440;}
</style>
<polygon class="st0" points="59.8,38.3 27.1,0.7 24.2,0.7 24.2,54.5 31.9,54.5 31.9,17.2 64.3,54.5 67.1,54.5 67.1,0.7 59.8,0.7 "/>
<g>
	<g>
		<rect x="210.1" y="0.7" class="st0" width="31.8" height="7.4"/>
		<polygon class="st0" points="210.1,21.8 210.1,54.5 241.7,54.5 241.7,47.2 217.4,47.2 217.4,29.2 241.7,29.2 241.7,21.8 		"/>
	</g>
</g>
<rect x="0.8" y="0.7" class="st0" width="7.4" height="53.9"/>
<rect x="128.2" y="0.7" class="st0" width="7.3" height="53.9"/>
<g>
	<g>
		<path class="st0" d="M114.4,41.9c0,2.4-0.6,4.5-1.8,6.5c-1.2,1.9-2.8,3.4-5,4.6c-2.1,1-4.5,1.6-6.9,1.6H81.1v-7.2h19.8
			c1.8,0,3.3-0.4,4.3-1.5c1-1,1.7-2.2,1.7-3.8c0-0.9-0.2-1.8-0.6-2.7c-0.5-0.9-1.2-2-2.4-3c-0.6-0.6-2.8-2.2-6.6-4.8
			c-1.5-1-3-2.2-4.2-3.3l0,0c-4.5-3.2-7.2-5.6-8.2-7.1c-2-2.5-3-5.2-3-8.2c0-2.4,0.6-4.5,1.8-6.5s2.8-3.5,5-4.6
			c2.1-1,4.3-1.6,6.9-1.6H113v7.2H95.3C93.5,7.5,92,8,90.8,9c-1,1.1-1.7,2.2-1.7,3.8c0,0.9,0.2,1.8,0.6,2.7c0.5,0.9,1.2,1.9,2.4,3
			c0.6,0.6,2.8,2.2,6.6,4.8c1.5,1.1,3,2.2,4.2,3.3l0,0c2.2,1.7,4,3,5.4,4.2c1.3,1.2,2.4,2.1,2.8,2.9
			C113.3,36.2,114.4,38.9,114.4,41.9z"/>
	</g>
</g>
<path class="st0" d="M256.9,54.5h7.4v-24h1.2l18.6,24h9.1l-18.6-24c3.4-0.2,6.3-0.8,8.4-1.7c2.7-1.2,4.8-3,6.2-5.2
	c1.5-2.2,2.1-4.9,2.1-8c0-3.6-1.1-6.8-3.1-9.3c-2.1-2.5-4.8-4.2-8.1-5c-2.1-0.5-6-0.8-11.8-0.8h-11.4V8h15.4c3.4,0,5.9,0.3,7.2,0.9
	c1.4,0.6,2.4,1.3,3.2,2.6s1.2,2.5,1.2,4c0,1.7-0.4,3-1.2,4.2s-1.9,2.1-3.3,2.7c-1.5,0.6-3.9,0.9-7.2,0.9l-15.2,0.1L256.9,54.5
	L256.9,54.5z"/>
<path class="st0" d="M169,0.5h-18.4v54H169c17.4,0,29.1-11,29.1-27C198.1,11.5,186.4,0.5,169,0.5z M168.5,47.2h-9.8V7.9h9.8
	c12.9,0,21.3,7.7,21.3,19.7S181.4,47.2,168.5,47.2z"/>
</svg>
