<?xml version="1.0" encoding="utf-8"?>
<!-- Generator: Adobe Illustrator 25.2.3, SVG Export Plug-In . SVG Version: 6.00 Build 0)  -->
<svg version="1.1" id="Layer_1" xmlns="http://www.w3.org/2000/svg" xmlns:xlink="http://www.w3.org/1999/xlink" x="0px" y="0px"
	 viewBox="0 0 197 23" style="enable-background:new 0 0 197 23;" xml:space="preserve">
<style type="text/css">
	.st0{fill:#FFFFFF;}
</style>
<g>
	<polygon class="st0" points="16.7,6.4 22.1,0.7 22.1,17.2 16.7,22.1 	"/>
	<polygon class="st0" points="8.8,9.3 11.4,11.4 14.2,8.9 14.2,17.2 8.8,22.1 	"/>
	<polygon class="st0" points="6.2,6.4 0.8,0.7 0.8,22.2 6.2,17.6 	"/>
	<path class="st0" d="M192.8,19.2h3.5V4.2h-3.5V19.2z M169.3,11.5V7.2h3.4c1.7,0,2.7,0.7,2.7,2.1v0c0,1.3-1,2.1-2.6,2.1L169.3,11.5
		L169.3,11.5z M165.9,19.2h3.5v-4.8h2.7l3.4,4.8h4l-3.8-5.3c2-0.7,3.4-2.2,3.4-4.6v0c0-1.4-0.5-2.6-1.3-3.4c-1-1-2.6-1.5-4.6-1.5
		h-7.2V19.2z M142.4,12.9l2.1-4.9l2.1,4.9H142.4z M136.3,19.2h3.5l1.4-3.4h6.6l1.4,3.4h3.6l-6.7-15H143L136.3,19.2z M118.6,19.4
		c3.4,0,5.8-1.7,5.8-4.6v0c0-2.6-1.8-3.7-5-4.5c-2.7-0.7-3.4-1-3.4-2v0c0-0.7,0.7-1.3,2-1.3c1.3,0,2.7,0.6,4.1,1.5l1.8-2.5
		C122.3,4.7,120.3,4,118,4c-3.2,0-5.5,1.8-5.5,4.5v0c0,3,2.1,3.8,5.2,4.6c2.6,0.7,3.2,1.1,3.2,1.9v0c0,0.9-0.8,1.4-2.2,1.4
		c-1.8,0-3.3-0.7-4.7-1.8l-2.1,2.3C113.8,18.6,116.2,19.4,118.6,19.4 M93.9,19.4c3.4,0,5.8-1.7,5.8-4.6v0c0-2.6-1.8-3.7-5-4.5
		c-2.7-0.7-3.4-1-3.4-2v0c0-0.7,0.7-1.3,2-1.3c1.3,0,2.7,0.6,4.1,1.5l1.8-2.5C97.6,4.7,95.6,4,93.4,4c-3.2,0-5.5,1.8-5.5,4.5v0
		c0,3,2.1,3.8,5.2,4.6c2.6,0.7,3.2,1.1,3.2,1.9v0c0,0.9-0.8,1.4-2.2,1.4c-1.8,0-3.3-0.7-4.7-1.8l-2.1,2.3
		C89.2,18.6,91.5,19.4,93.9,19.4 M62.8,19.2h12v-2.9h-8.5v-3.1h7.4v-2.9h-7.4v-3h8.4V4.2H62.8L62.8,19.2L62.8,19.2z M32.7,19.2h3.4
		V9.5l4.4,6.3h0.1L45,9.4v9.7h3.4V4.2h-3.7l-4.1,6.3l-4.1-6.3h-3.7V19.2z"/>
</g>
</svg>
